<?xml version="1.0" standalone="no"?>
<!DOCTYPE svg PUBLIC "-//W3C//DTD SVG 1.1//EN" "http://www.w3.org/Graphics/SVG/1.1/DTD/svg11.dtd" >
<svg xmlns="http://www.w3.org/2000/svg" xmlns:xlink="http://www.w3.org/1999/xlink" version="1.1">
<metadata>
Created by FontForge 20160407 at Thu Aug 25 17:21:36 2016
 By Jimmy Warting
Spaced and kerned with iKern.
</metadata>
<defs>
<font id="MuseoSlab-500" horiz-adv-x="555" >
  <font-face 
    font-family="Museo Slab 500"
    font-weight="400"
    font-stretch="normal"
    units-per-em="1000"
    panose-1="2 0 0 0 0 0 0 0 0 0"
    ascent="750"
    descent="-250"
    x-height="506"
    cap-height="706"
    bbox="-131 -225 1088 902"
    underline-thickness="50"
    underline-position="-100"
    stemh="75"
    stemv="97"
    unicode-range="U+0020-FB04"
  />
<missing-glyph horiz-adv-x="510" 
d="M5 0v700h500v-700h-500zM255 395l170 255h-340zM285 350l170 -255v510zM55 95l170 255l-170 255v-510zM85 50h340l-170 255z" />
    <glyph glyph-name="f_f" unicode="ff" horiz-adv-x="719" 
d="M48 0v75h79v356h-84v75h84v25c0 162 122 182 182 182c27 0 46 -3 46 -3v-80s-13 3 -36 3c-32 0 -95 -9 -95 -100v-27h247v25c0 162 121 182 181 182c28 0 47 -3 47 -3v-80s-13 3 -37 3c-31 0 -94 -9 -94 -100v-27h122v-75h-122v-356h93v-75h-270v75h80v356h-247v-356h93
v-75h-269z" />
    <glyph glyph-name="fi" unicode="fi" horiz-adv-x="678" 
d="M48 0v75h79v356h-84v75h84v25c0 162 122 182 182 182c27 0 46 -3 46 -3v-80s-13 3 -36 3c-32 0 -95 -9 -95 -100v-27h344v-431h79v-75h-256v75h80v356h-247v-356h93v-75h-269zM468 607v99h102v-99h-102z" />
    <glyph glyph-name="fl" unicode="fl" horiz-adv-x="660" 
d="M48 0v75h79v356h-84v75h84v15c0 157 122 201 235 201c106 0 187 -25 187 -25v-547c0 -43 8 -72 57 -72c12 0 23 1 23 1v-80s-20 -2 -43 -2c-73 0 -134 29 -134 147v491s-32 10 -93 10c-69 0 -135 -29 -135 -121v-18h122v-75h-122v-356h93v-75h-269z" />
    <glyph glyph-name="f_f_i" unicode="ffi" horiz-adv-x="1021" 
d="M48 0v75h79v356h-84v75h84v25c0 162 122 182 182 182c27 0 46 -3 46 -3v-80s-13 3 -36 3c-32 0 -95 -9 -95 -100v-27h247v25c0 162 121 182 181 182c28 0 47 -3 47 -3v-80s-13 3 -37 3c-31 0 -94 -9 -94 -100v-27h343v-431h80v-75h-256v75h80v356h-247v-356h93v-75h-270
v75h80v356h-247v-356h93v-75h-269zM812 607v99h102v-99h-102z" />
    <glyph glyph-name="f_f_l" unicode="ffl" horiz-adv-x="1003" 
d="M48 0v75h79v356h-84v75h84v25c0 162 121 182 183 182c26 0 45 -3 45 -3v-80s-13 3 -35 3c-33 0 -96 -9 -96 -100v-27h247v15c0 157 121 201 235 201c106 0 186 -25 186 -25v-547c0 -43 9 -72 58 -72c12 0 23 1 23 1l-1 -80s-19 -2 -42 -2c-73 0 -135 29 -135 147v491
s-31 10 -92 10c-70 0 -135 -29 -135 -121v-18h122v-75h-122v-356h93v-75h-270v75h80v356h-247v-356h93v-75h-269z" />
    <glyph glyph-name="f_j" unicode="fj" horiz-adv-x="645" 
d="M48 0v75h79v356h-84v75h84v25c0 162 122 182 182 182c27 0 46 -3 46 -3v-80s-13 3 -36 3c-32 0 -95 -9 -95 -100v-27h339v-521c0 -169 -131 -191 -194 -191c-20 0 -34 2 -34 2v79s9 -1 22 -1c38 0 109 13 109 114v443h-242v-356h93v-75h-269zM464 607v99h100v-99h-100z
" />
    <glyph glyph-name=".notdef" horiz-adv-x="510" 
d="M5 0v700h500v-700h-500zM255 395l170 255h-340zM285 350l170 -255v510zM55 95l170 255l-170 255v-510zM85 50h340l-170 255z" />
    <glyph glyph-name="space" unicode=" " horiz-adv-x="250" 
 />
    <glyph glyph-name="exclam" unicode="!" horiz-adv-x="247" 
d="M80 194l-7 512h100l-6 -512h-87zM74 0v98h100v-98h-100z" />
    <glyph glyph-name="quotedbl" unicode="&#x22;" horiz-adv-x="344" 
d="M204 506v212h76v-212h-76zM64 506v212h76v-212h-76z" />
    <glyph glyph-name="numbersign" unicode="#" horiz-adv-x="717" 
d="M139 0l34 191h-131l12 74h131l30 168h-130l12 73h130l35 200h81l-35 -200h155l35 200h82l-35 -200h130l-12 -73h-131l-30 -168h130l-12 -74h-130l-33 -191h-82l34 191h-155l-34 -191h-81zM266 265h155l30 168h-155z" />
    <glyph glyph-name="dollar" unicode="$" horiz-adv-x="543" 
d="M42 96l54 71s78 -76 180 -76c68 0 124 39 124 104c0 139 -346 103 -346 321c0 93 75 168 186 184v109h71v-108c112 -8 171 -69 171 -69l-43 -77s-68 61 -155 61c-79 0 -130 -42 -130 -98c0 -148 346 -105 346 -317c0 -98 -71 -183 -189 -196v-107h-71v107
c-128 13 -198 91 -198 91z" />
    <glyph glyph-name="percent" unicode="%" horiz-adv-x="750" 
d="M194 422c-84 0 -151 66 -151 148c0 81 67 148 151 148s152 -67 152 -148c0 -82 -68 -148 -152 -148zM58 0l540 706h94l-540 -706h-94zM194 496c42 0 74 32 74 74c0 41 -32 75 -74 75s-74 -34 -74 -75c0 -42 32 -74 74 -74zM405 136c0 81 67 148 152 148
c83 0 151 -67 151 -148c0 -82 -68 -148 -151 -148c-85 0 -152 66 -152 148zM483 136c0 -42 32 -74 74 -74c41 0 74 32 74 74c0 41 -33 75 -74 75c-42 0 -74 -34 -74 -75z" />
    <glyph glyph-name="ampersand" unicode="&#x26;" horiz-adv-x="675" 
d="M49 197c0 80 47 156 128 182v2s-98 32 -98 155c0 117 97 182 226 182c42 0 88 -11 88 -11l-25 -79s-29 6 -53 6c-76 0 -135 -39 -135 -108c0 -46 21 -113 131 -113h150v98h97v-98h93v-82h-93v-96c0 -157 -98 -247 -253 -247c-154 0 -256 91 -256 209zM150 205
c0 -73 58 -128 155 -128c94 0 156 50 156 162v92h-155c-101 0 -156 -48 -156 -126z" />
    <glyph glyph-name="quotesingle" unicode="'" horiz-adv-x="205" 
d="M64 506v212h77v-212h-77z" />
    <glyph glyph-name="parenleft" unicode="(" horiz-adv-x="314" 
d="M185 -95c-72 120 -116 274 -116 435c0 144 42 277 116 395h85c-73 -122 -113 -255 -113 -396c0 -149 37 -298 113 -434h-85z" />
    <glyph glyph-name="parenright" unicode=")" horiz-adv-x="314" 
d="M44 -95c75 136 113 285 113 434c0 141 -40 274 -113 396h85c74 -118 116 -251 116 -395c0 -161 -44 -315 -116 -435h-85z" />
    <glyph glyph-name="asterisk" unicode="*" horiz-adv-x="479" 
d="M161 329l-72 52l89 110v2l-137 37l27 84l133 -50l-8 142h91l-8 -142l134 50l28 -84l-138 -37v-2l89 -110l-72 -52l-77 118h-2z" />
    <glyph glyph-name="plus" unicode="+" horiz-adv-x="613" 
d="M42 246v78h224v246h82v-246h223v-78h-223v-246h-82v246h-224z" />
    <glyph glyph-name="comma" unicode="," horiz-adv-x="261" 
d="M20 -124l70 229h102l-95 -229h-77z" />
    <glyph glyph-name="hyphen" unicode="-" horiz-adv-x="476" 
d="M92 242v86h292v-86h-292z" />
    <glyph glyph-name="period" unicode="." horiz-adv-x="256" 
d="M76 0v105h104v-105h-104z" />
    <glyph glyph-name="slash" unicode="/" horiz-adv-x="424" 
d="M41 -42l255 786h86l-255 -786h-86z" />
    <glyph glyph-name="zero" unicode="0" horiz-adv-x="620" 
d="M310 -12c-189 0 -250 162 -250 366c0 203 61 364 250 364c188 0 250 -161 250 -364c0 -204 -62 -366 -250 -366zM310 77c115 0 148 121 148 277c0 154 -33 276 -148 276c-116 0 -148 -122 -148 -276c0 -156 32 -277 148 -277z" />
    <glyph glyph-name="one" unicode="1" horiz-adv-x="479" 
d="M51 0v82h156v460c0 22 1 43 1 43h-2s-8 -15 -34 -40l-66 -65l-60 62l169 164h88v-624h154v-82h-406z" />
    <glyph glyph-name="two" unicode="2" horiz-adv-x="586" 
d="M54 0c-3 19 -5 37 -5 54c0 252 351 283 351 457c0 73 -52 119 -127 119c-93 0 -146 -94 -146 -94l-70 48s64 134 224 134c129 0 223 -81 223 -203c0 -227 -345 -264 -347 -433h288v94h87v-176h-478z" />
    <glyph glyph-name="three" unicode="3" horiz-adv-x="570" 
d="M69 534v172h431v-69l-187 -220c88 -9 200 -66 200 -202c0 -121 -95 -227 -242 -227c-145 0 -229 96 -229 96l52 71s71 -78 172 -78c79 0 145 56 145 134c0 84 -70 131 -156 131c-19 0 -37 -1 -42 -2l-23 52l172 207c11 14 27 26 27 26v2s-22 -3 -36 -3h-197v-90h-87z" />
    <glyph glyph-name="four" unicode="4" horiz-adv-x="599" 
d="M26 189v62l327 455h112v-437h96v-80h-96v-189h-97v189h-342zM344 553l-210 -282v-2h234v277c0 24 5 54 5 54h-3s-11 -25 -26 -47z" />
    <glyph glyph-name="five" unicode="5" horiz-adv-x="564" 
d="M42 79l52 70s59 -72 161 -72c89 0 159 64 159 144c0 87 -63 146 -160 146c-75 0 -124 -36 -124 -36l-58 21l35 354h365v-172h-87v90h-192l-18 -169c-2 -13 -5 -28 -5 -28h2s39 22 100 22c146 0 244 -98 244 -224c0 -133 -109 -237 -256 -237c-143 0 -218 91 -218 91z" />
    <glyph glyph-name="six" unicode="6" horiz-adv-x="597" 
d="M320 -12c-154 0 -264 132 -264 330c0 187 99 400 321 400c81 0 135 -29 135 -29l-31 -83s-45 24 -102 24c-130 0 -198 -121 -213 -240h2c31 40 94 67 160 67c133 0 224 -102 224 -231c0 -140 -99 -238 -232 -238zM160 266c0 -82 65 -189 159 -189c82 0 132 62 132 149
c0 85 -54 148 -151 148c-79 0 -140 -51 -140 -108z" />
    <glyph glyph-name="seven" unicode="7" horiz-adv-x="543" 
d="M103 0l292 590c11 23 22 35 22 35v2s-18 -3 -41 -3h-249v-90h-87v172h484v-68l-319 -638h-102z" />
    <glyph glyph-name="eight" unicode="8" horiz-adv-x="600" 
d="M54 199c0 113 94 178 114 192c-50 33 -86 77 -86 142c0 94 72 185 220 185c132 0 224 -74 224 -186c0 -97 -71 -172 -84 -185c58 -34 101 -81 101 -153c0 -108 -95 -206 -242 -206c-141 0 -247 90 -247 211zM180 532c0 -81 94 -108 188 -149c11 13 61 68 61 138
s-51 111 -127 111c-79 0 -122 -45 -122 -100zM154 209c0 -81 69 -134 146 -134c74 0 142 50 142 119c0 82 -94 105 -204 155c-20 -15 -84 -61 -84 -140z" />
    <glyph glyph-name="nine" unicode="9" horiz-adv-x="597" 
d="M45 481c0 140 100 237 233 237c153 0 263 -132 263 -330c0 -185 -98 -400 -321 -400c-81 0 -136 29 -136 29l31 84s45 -24 103 -24c131 0 199 121 214 240h-2c-31 -38 -95 -64 -161 -64c-133 0 -224 101 -224 228zM147 481c0 -84 54 -145 148 -145c78 0 142 50 142 107
c0 84 -68 187 -159 187c-81 0 -131 -64 -131 -149z" />
    <glyph glyph-name="colon" unicode=":" horiz-adv-x="298" 
d="M97 0v105h104v-105h-104zM97 401v105h104v-105h-104z" />
    <glyph glyph-name="semicolon" unicode=";" horiz-adv-x="299" 
d="M102 401v105h102v-105h-102zM43 -124l61 229h102l-85 -229h-78z" />
    <glyph glyph-name="less" unicode="&#x3c;" horiz-adv-x="613" 
d="M58 252v66l466 208v-89l-357 -151v-2l357 -151v-89z" />
    <glyph glyph-name="equal" unicode="=" horiz-adv-x="613" 
d="M68 340v78h477v-78h-477zM68 151v78h477v-78h-477z" />
    <glyph glyph-name="greater" unicode="&#x3e;" horiz-adv-x="613" 
d="M88 44v89l358 151v2l-358 151v89l467 -208v-66z" />
    <glyph glyph-name="question" unicode="?" horiz-adv-x="469" 
d="M148 194v47c0 152 170 174 170 289c0 56 -48 99 -114 99c-63 0 -114 -42 -114 -42l-54 69s66 64 175 64c113 0 209 -72 209 -183c0 -165 -177 -182 -177 -302v-41h-95zM145 0v98h101v-98h-101z" />
    <glyph glyph-name="at" unicode="@" horiz-adv-x="787" 
d="M43 242c0 205 155 369 378 369c173 0 247 -97 247 -203v-283h72v-73h-273c-125 0 -207 88 -207 189c0 99 81 187 207 187h108c-1 56 -61 103 -157 103c-162 0 -278 -134 -278 -291c0 -156 115 -286 284 -286v-79c-223 0 -381 161 -381 367zM358 241
c0 -63 49 -116 117 -116h100v236h-98c-70 0 -119 -54 -119 -120z" />
    <glyph glyph-name="A" unicode="A" horiz-adv-x="721" 
d="M11 0v78h68l225 628h113l225 -628h68v-78h-245v78h75l-55 157h-250l-55 -157h76v-78h-245zM260 315h200l-86 245c-10 29 -12 54 -12 54h-3s-3 -25 -12 -54z" />
    <glyph glyph-name="B" unicode="B" horiz-adv-x="680" 
d="M53 0v78h88v551h-88v77h321c51 0 89 -5 124 -21c56 -25 97 -83 97 -159c0 -69 -34 -124 -89 -152v-2c76 -22 117 -91 117 -171c0 -93 -57 -163 -130 -188c-34 -11 -67 -13 -106 -13h-334zM241 409h148c64 0 104 44 104 108c0 41 -16 76 -46 93c-20 10 -43 14 -73 14h-133
v-215zM241 82h150c20 0 44 2 63 10c41 17 67 61 67 114c0 73 -48 121 -122 121h-158v-245z" />
    <glyph glyph-name="C" unicode="C" horiz-adv-x="744" 
d="M49 357c0 207 157 361 361 361c85 0 269 -31 269 -140v-86h-93v55c0 62 -107 85 -172 85c-151 0 -262 -111 -262 -271c0 -167 114 -286 268 -286c50 0 176 18 176 83v55h93v-86c0 -104 -177 -139 -275 -139c-212 0 -365 163 -365 369z" />
    <glyph glyph-name="D" unicode="D" horiz-adv-x="779" 
d="M53 0v78h88v551h-88v77h301c59 0 103 -3 150 -17c135 -42 223 -164 223 -336c0 -171 -85 -290 -223 -334c-46 -15 -93 -19 -149 -19h-302zM241 82h108c46 0 84 4 120 18c95 33 154 124 154 253c0 130 -59 221 -153 255c-39 14 -75 16 -121 16h-108v-542z" />
    <glyph glyph-name="E" unicode="E" horiz-adv-x="632" 
d="M53 0v78h88v551h-88v77h511v-164h-87v82h-236v-227h250v-82h-250v-233h253v85h87v-167h-528z" />
    <glyph glyph-name="F" unicode="F" horiz-adv-x="577" 
d="M53 0v78h88v551h-88v77h489v-167h-87v81h-214v-234h244v-82h-244v-226h96v-78h-284z" />
    <glyph glyph-name="G" unicode="G" horiz-adv-x="766" 
d="M49 355c0 209 150 363 370 363c124 0 271 -50 271 -139v-87h-92v52c0 59 -93 88 -176 88c-165 0 -269 -112 -269 -274c0 -163 106 -283 272 -283c63 0 189 19 189 88v93h-138v78h230v-198c0 -109 -182 -148 -288 -148c-217 0 -369 158 -369 367z" />
    <glyph glyph-name="H" unicode="H" horiz-adv-x="848" 
d="M53 0v78h88v551h-88v77h277v-77h-89v-235h366v235h-89v77h277v-77h-88v-551h88v-78h-277v78h89v234h-366v-234h89v-78h-277z" />
    <glyph glyph-name="I" unicode="I" horiz-adv-x="382" 
d="M53 0v78h88v551h-88v77h277v-77h-89v-551h89v-78h-277z" />
    <glyph glyph-name="J" unicode="J" 
d="M24 197v41h97v-31c0 -69 31 -130 109 -130c56 0 107 34 107 130v422h-102v77h281v-77h-79v-428c0 -151 -106 -213 -208 -213c-101 0 -205 58 -205 209z" />
    <glyph glyph-name="K" unicode="K" horiz-adv-x="692" 
d="M53 0v78h88v551h-88v77h265v-77h-77v-222h91l154 222h-65v77h239v-77h-68l-183 -255v-2s20 -9 40 -47l127 -221c11 -19 25 -26 50 -26h33v-78h-71c-59 0 -76 14 -98 53l-136 244c-12 20 -26 28 -55 28h-58v-247h87v-78h-275z" />
    <glyph glyph-name="L" unicode="L" horiz-adv-x="604" 
d="M54 0v78h88v546h-88v82h277v-82h-89v-542h246v114h88v-196h-522z" />
    <glyph glyph-name="M" unicode="M" horiz-adv-x="958" 
d="M38 0v78h88l45 551h-90v77h200l181 -430c11 -29 16 -51 16 -51h2s5 22 16 51l181 430h200v-77h-90l45 -551h88v-78h-272v78h85l-32 422c-1 22 3 58 3 58h-3s-8 -34 -16 -54l-162 -371h-88l-162 371c-8 20 -16 54 -16 54h-3s4 -36 3 -58l-32 -422h85v-78h-272z" />
    <glyph glyph-name="N" unicode="N" horiz-adv-x="838" 
d="M53 0v78h88v551h-88v77h187l347 -506c12 -20 24 -51 24 -51h3s-5 35 -5 57v423h-90v77h279v-77h-89v-629h-98l-347 506c-13 20 -24 51 -24 51h-3s5 -35 4 -57v-422h91v-78h-279z" />
    <glyph glyph-name="O" unicode="O" horiz-adv-x="822" 
d="M48 358c0 203 158 360 363 360c204 0 363 -157 363 -360c0 -208 -159 -370 -363 -370c-205 0 -363 162 -363 370zM151 358c0 -159 116 -281 260 -281c143 0 259 122 259 281c0 154 -116 272 -259 272c-144 0 -260 -118 -260 -272z" />
    <glyph glyph-name="P" unicode="P" horiz-adv-x="653" 
d="M53 0v78h88v551h-88v77h329c43 0 86 -3 121 -19c73 -31 120 -106 120 -200c0 -99 -52 -179 -133 -207c-33 -12 -67 -15 -106 -15h-143v-187h89v-78h-277zM241 347h131c32 0 57 5 79 14c45 20 71 65 71 126c0 57 -23 99 -63 120c-22 12 -52 17 -86 17h-132v-277z" />
    <glyph glyph-name="Q" unicode="Q" horiz-adv-x="825" 
d="M49 357c0 204 156 361 363 361c205 0 364 -151 364 -356c0 -92 -31 -174 -85 -238l84 -80l-57 -62l-83 83c-61 -50 -138 -77 -224 -77c-205 0 -362 163 -362 369zM152 357c0 -158 114 -280 260 -280c52 0 113 18 154 53l-104 103l57 61l103 -104c32 46 53 105 53 168
c0 154 -115 272 -263 272c-146 0 -260 -117 -260 -273z" />
    <glyph glyph-name="R" unicode="R" horiz-adv-x="702" 
d="M53 0v78h88v551h-88v77h306c50 0 91 -2 130 -15c74 -25 123 -87 123 -183c0 -102 -56 -175 -146 -198v-2s18 -10 30 -33l100 -174c11 -19 24 -23 49 -23h21v-78h-60c-60 0 -74 11 -98 53l-109 193c-18 30 -31 39 -74 39h-84v-207h87v-78h-275zM241 367h142
c77 0 128 50 128 133c0 55 -22 93 -66 111c-23 9 -53 13 -87 13h-117v-257z" />
    <glyph glyph-name="S" unicode="S" horiz-adv-x="578" 
d="M53 212h92v-52c0 -52 67 -83 141 -83c81 0 140 38 140 108c0 82 -83 109 -170 143c-93 35 -188 75 -188 200c0 133 107 190 226 190c106 0 214 -40 214 -117v-83h-93v49c0 41 -63 63 -121 63c-69 0 -124 -32 -124 -97c0 -75 71 -100 150 -130c104 -39 207 -79 207 -210
c0 -135 -110 -205 -241 -205c-110 0 -233 49 -233 150v74z" />
    <glyph glyph-name="T" unicode="T" horiz-adv-x="664" 
d="M193 0v78h89v546h-166v-110h-87v192h606v-192h-87v110h-166v-546h89v-78h-278z" />
    <glyph glyph-name="U" unicode="U" horiz-adv-x="797" 
d="M120 263v366h-89v77h278v-77h-89v-365c0 -46 9 -86 27 -115c29 -46 84 -72 152 -72c67 0 123 26 152 74c17 29 27 68 27 114v364h-89v77h277v-77h-88v-366c0 -67 -18 -128 -49 -172c-48 -68 -134 -103 -230 -103c-100 0 -184 38 -232 103c-33 45 -47 104 -47 172z" />
    <glyph glyph-name="V" unicode="V" horiz-adv-x="714" 
d="M304 0l-223 629h-69v77h252v-77h-78l158 -465c8 -25 12 -55 12 -55h3s4 30 12 55l158 465h-78v77h252v-77h-70l-223 -629h-106z" />
    <glyph glyph-name="W" unicode="W" horiz-adv-x="1009" 
d="M16 629v77h251v-77h-84l110 -463c5 -25 8 -53 8 -53h3s4 28 10 53l148 540h85l147 -540c7 -25 10 -53 10 -53h4s2 28 7 53l110 463h-84v77h252v-77h-68l-158 -629h-114l-138 501c-7 25 -9 56 -9 56h-4s-2 -31 -9 -56l-138 -501h-114l-157 629h-68z" />
    <glyph glyph-name="X" unicode="X" horiz-adv-x="669" 
d="M30 0v78h66l182 279l-179 272h-65v77h246v-77h-75l117 -185c11 -15 18 -28 18 -28h2s6 13 17 28l113 185h-73v77h239v-77h-66l-183 -281l180 -270h67v-78h-246v78h74l-118 184c-11 16 -18 29 -18 29h-2c-1 0 -6 -13 -16 -29l-114 -184h74v-78h-240z" />
    <glyph glyph-name="Y" unicode="Y" horiz-adv-x="650" 
d="M186 0v78h89v221l-198 330h-67v77h243v-77h-74l131 -222c8 -15 14 -30 14 -30h2s6 15 15 30l131 222h-73v77h241v-77h-67l-198 -330v-221h89v-78h-278z" />
    <glyph glyph-name="Z" unicode="Z" horiz-adv-x="632" 
d="M54 0v66l364 525c14 20 29 34 29 34v2s-20 -3 -40 -3h-261v-110h-87v192h509v-65l-364 -526c-14 -20 -29 -34 -29 -34v-2s20 3 40 3h276v114h87v-196h-524z" />
    <glyph glyph-name="bracketleft" unicode="[" horiz-adv-x="311" 
d="M97 -95v830h165v-73h-80v-683h80v-74h-165z" />
    <glyph glyph-name="backslash" unicode="\" horiz-adv-x="423" 
d="M297 -42l-255 786h86l254 -786h-85z" />
    <glyph glyph-name="bracketright" unicode="]" horiz-adv-x="312" 
d="M49 -21h81v683h-81v73h166v-830h-166v74z" />
    <glyph glyph-name="asciicircum" unicode="^" horiz-adv-x="613" 
d="M69 247l200 459h63l200 -459h-88l-144 352l-143 -352h-88z" />
    <glyph glyph-name="underscore" unicode="_" horiz-adv-x="557" 
d="M10 0h537v-78h-537v78z" />
    <glyph glyph-name="grave" unicode="`" horiz-adv-x="499" 
d="M263 755l-124 127h112l103 -127h-91z" />
    <glyph glyph-name="a" unicode="a" 
d="M33 141c0 159 211 170 295 170h32v19c0 80 -46 108 -108 108c-80 0 -145 -49 -145 -49l-39 69s74 60 192 60c129 0 197 -67 197 -195v-226c0 -15 8 -22 22 -22h51v-75h-101c-45 0 -63 22 -63 55v7c0 20 4 33 4 33h-2s-44 -107 -167 -107c-84 0 -168 49 -168 153zM131 149
c0 -45 33 -86 91 -86c86 0 139 88 139 164v21h-25c-46 0 -205 -2 -205 -99z" />
    <glyph glyph-name="b" unicode="b" horiz-adv-x="609" 
d="M85 0v631h-85v75h182v-234c0 -24 -3 -42 -3 -42h2s45 88 163 88c137 0 223 -108 223 -265c0 -161 -97 -265 -231 -265c-117 0 -160 92 -160 92h-2s3 -18 3 -40v-40h-92zM179 251c0 -90 47 -179 144 -179c79 0 145 65 145 180c0 110 -59 181 -143 181
c-75 0 -146 -53 -146 -182z" />
    <glyph glyph-name="c" unicode="c" horiz-adv-x="553" 
d="M40 252c0 155 117 266 268 266c75 0 198 -28 198 -115v-62h-86v35c0 39 -64 58 -109 58c-102 0 -172 -72 -172 -180c0 -115 81 -182 178 -182c86 0 144 51 162 65l37 -71c-23 -21 -96 -78 -203 -78c-146 0 -273 101 -273 264z" />
    <glyph glyph-name="d" unicode="d" horiz-adv-x="629" 
d="M42 253c0 161 94 265 230 265c115 0 156 -85 156 -85h2s-3 16 -3 38v160h-84v75h181v-609c0 -15 8 -22 22 -22h51v-75h-101c-45 0 -63 22 -63 55v7c0 17 3 27 3 27h-2s-41 -101 -171 -101c-136 0 -221 108 -221 265zM141 253c0 -110 59 -181 143 -181
c75 0 146 54 146 180c0 93 -47 181 -143 181c-81 0 -146 -65 -146 -180z" />
    <glyph glyph-name="e" unicode="e" 
d="M41 253c0 161 109 265 253 265s219 -106 219 -237c0 -13 -3 -37 -3 -37h-370c6 -112 85 -172 175 -172c88 0 151 57 151 57l40 -71s-76 -70 -197 -70c-159 0 -268 115 -268 265zM144 306h269c-3 89 -57 135 -121 135c-74 0 -134 -50 -148 -135z" />
    <glyph glyph-name="f" unicode="f" horiz-adv-x="375" 
d="M48 0v75h79v356h-84v75h84v25c0 162 122 182 182 182c27 0 46 -3 46 -3v-80s-13 3 -36 3c-32 0 -95 -9 -95 -100v-27h122v-75h-122v-356h93v-75h-269z" />
    <glyph glyph-name="g" unicode="g" horiz-adv-x="626" 
d="M121 -94c0 0 63 -34 139 -34c88 0 160 40 160 144v40c0 16 3 32 3 32h-2c-30 -50 -78 -82 -152 -82c-140 0 -226 113 -226 259c0 145 81 253 222 253c66 0 136 -25 164 -83h2s-2 7 -2 20c0 32 16 51 58 51h108v-75h-56c-13 0 -22 -7 -22 -20v-390
c0 -167 -127 -231 -255 -231c-61 0 -123 17 -173 42zM288 90c70 0 134 42 134 174s-64 170 -143 170c-87 0 -137 -64 -137 -167c0 -105 55 -177 146 -177z" />
    <glyph glyph-name="h" unicode="h" horiz-adv-x="674" 
d="M32 0v75h80v556h-85v75h181v-262c0 -24 -3 -42 -3 -42h2c22 49 88 116 189 116c119 0 174 -65 174 -194v-249h79v-75h-176v302c0 71 -15 127 -96 127c-99 0 -169 -84 -169 -192v-162h80v-75h-256z" />
    <glyph glyph-name="i" unicode="i" horiz-adv-x="336" 
d="M125 607v99h102v-99h-102zM48 0v75h79v356h-84v75h181v-431h80v-75h-256z" />
    <glyph glyph-name="j" unicode="j" horiz-adv-x="296" 
d="M112 607v99h102v-99h-102zM-16 -125c0 0 9 -1 22 -1c37 0 108 13 108 114v443h-85v75h182v-521c0 -169 -131 -191 -194 -191c-20 0 -33 2 -33 2v79z" />
    <glyph glyph-name="k" unicode="k" horiz-adv-x="587" 
d="M32 0v75h80v556h-85v75h181v-394h74l101 119h-66v75h230v-75h-67l-125 -146v-2c1 0 17 -7 37 -41l86 -147c10 -16 18 -20 44 -20h32v-75h-76c-46 0 -61 8 -83 47l-100 171c-11 18 -25 20 -47 20h-40v-163h68v-75h-244z" />
    <glyph glyph-name="l" unicode="l" horiz-adv-x="293" 
d="M85 144v487h-84v75h181v-556c0 -43 10 -72 54 -72c16 0 27 1 27 1l-1 -80s-20 -2 -43 -2c-72 0 -134 29 -134 147z" />
    <glyph glyph-name="m" unicode="m" horiz-adv-x="1000" 
d="M48 0v75h79v335c0 14 -8 21 -22 21h-62v75h114c43 0 64 -19 64 -56v-26c0 -16 -3 -29 -3 -29h2c25 60 98 123 180 123c81 0 131 -37 148 -119h2c28 63 98 119 181 119c112 0 165 -65 165 -194v-249h80v-75h-177v303c0 71 -13 127 -89 127c-95 0 -149 -97 -149 -197v-158
h79v-75h-176v303c0 66 -10 127 -88 127c-96 0 -152 -102 -152 -201v-154h80v-75h-256z" />
    <glyph glyph-name="n" unicode="n" horiz-adv-x="689" 
d="M48 0v75h79v334c0 15 -8 22 -22 22h-62v75h114c44 0 64 -19 64 -56v-26c0 -16 -3 -29 -3 -29h2c10 27 69 123 197 123c116 0 168 -65 168 -194v-249h80v-75h-177v302c0 71 -14 127 -95 127c-102 0 -169 -93 -169 -194v-160h80v-75h-256z" />
    <glyph glyph-name="o" unicode="o" horiz-adv-x="626" 
d="M40 254c0 153 122 264 273 264s273 -111 273 -264c0 -154 -122 -266 -273 -266s-273 112 -273 266zM139 254c0 -106 78 -182 174 -182c95 0 174 76 174 182c0 105 -79 180 -174 180c-96 0 -174 -75 -174 -180z" />
    <glyph glyph-name="p" unicode="p" horiz-adv-x="637" 
d="M34 -125h79v534c0 15 -8 22 -22 22h-62v75h112c45 0 62 -20 62 -50v-4c0 -16 -2 -29 -2 -29h2s42 95 170 95c136 0 222 -108 222 -265c0 -161 -97 -265 -229 -265c-111 0 -157 86 -157 86h-2s3 -18 3 -44v-155h80v-75h-256v75zM208 251c0 -90 49 -179 143 -179
c80 0 146 65 146 180c0 110 -59 181 -144 181c-75 0 -145 -53 -145 -182z" />
    <glyph glyph-name="q" unicode="q" horiz-adv-x="609" 
d="M42 253c0 161 95 265 229 265c98 0 147 -70 161 -88h2s-2 14 -2 35v41h92v-631h79v-75h-255v75h79v159c0 26 3 44 3 44h-2s-44 -90 -163 -90c-137 0 -223 108 -223 265zM141 253c0 -110 59 -181 143 -181c75 0 146 53 146 182c0 90 -47 180 -144 180
c-79 0 -145 -66 -145 -181z" />
    <glyph glyph-name="r" unicode="r" horiz-adv-x="423" 
d="M50 0v75h76v334c0 15 -8 22 -22 22h-63v75h114c44 0 65 -18 65 -59v-32c0 -20 -2 -35 -2 -35h2c23 74 82 132 160 132c13 0 25 -2 25 -2v-96s-12 3 -28 3c-108 0 -154 -109 -154 -208v-134h75v-75h-248z" />
    <glyph glyph-name="s" unicode="s" horiz-adv-x="481" 
d="M40 109v54h85v-33c0 -43 60 -63 116 -63c57 0 102 23 102 65c0 51 -56 67 -126 92c-75 28 -158 62 -158 154c0 100 99 140 187 140c71 0 175 -28 175 -102v-61h-85v33c0 31 -40 52 -89 52c-48 0 -90 -20 -90 -61c0 -48 56 -68 117 -89c78 -26 167 -59 167 -153
c0 -96 -88 -149 -203 -149c-92 0 -198 41 -198 121z" />
    <glyph glyph-name="t" unicode="t" horiz-adv-x="360" 
d="M103 185v246h-85v75h87v139h95v-139h121v-75h-121v-237c0 -103 70 -116 108 -116c14 0 23 1 23 1v-81s-14 -2 -35 -2c-64 0 -193 20 -193 189z" />
    <glyph glyph-name="u" unicode="u" horiz-adv-x="665" 
d="M105 182v249h-85v75h182v-304c0 -70 14 -126 95 -126c101 0 164 97 164 197v158h-85v75h182v-410c0 -14 8 -22 22 -22h53v-74h-105c-44 0 -64 20 -64 56v22c0 17 2 30 2 30h-2c-10 -27 -67 -120 -193 -120c-109 0 -166 60 -166 194z" />
    <glyph glyph-name="v" unicode="v" horiz-adv-x="581" 
d="M9 431v75h227v-75h-65l107 -295c8 -22 11 -47 11 -47h3s3 25 11 47l108 295h-65v75h226v-75h-63l-164 -431h-109l-163 431h-64z" />
    <glyph glyph-name="w" unicode="w" horiz-adv-x="856" 
d="M10 431v75h226v-75h-68l86 -294c6 -21 8 -47 8 -47h3s2 26 8 47l111 368h88l111 -368c6 -21 8 -47 8 -47h3s2 26 8 47l87 294h-69v75h226v-75h-63l-130 -431h-108l-107 338c-6 23 -9 48 -9 48h-2s-3 -25 -9 -48l-107 -338h-108l-130 431h-63z" />
    <glyph glyph-name="x" unicode="x" horiz-adv-x="572" 
d="M37 0v75h76l121 186l-112 170h-82v75h142l90 -147c9 -15 17 -33 17 -33h2s8 17 18 33l92 147h134v-75h-77l-113 -169l125 -187h68v-75h-129l-102 164c-10 15 -18 32 -18 32h-2s-7 -16 -18 -33l-100 -163h-132z" />
    <glyph glyph-name="y" unicode="y" horiz-adv-x="590" 
d="M64 -105c0 0 29 -24 72 -24s76 30 93 70l21 50l-177 440h-64v75h231v-75h-67l113 -301c7 -22 9 -44 9 -44h3s4 22 12 44l112 301h-65v75h224v-75h-63l-200 -511c-34 -86 -100 -130 -178 -130c-65 0 -109 32 -109 32z" />
    <glyph glyph-name="z" unicode="z" horiz-adv-x="527" 
d="M48 64l279 338c15 18 28 29 28 29v2s-21 -2 -41 -2h-176v-81h-85v156h419v-64l-277 -338c-15 -18 -28 -28 -28 -28v-2s20 1 40 1h187v81h85v-156h-431v64z" />
    <glyph glyph-name="braceleft" unicode="{" horiz-adv-x="337" 
d="M118 77v96c0 102 -85 109 -85 109v86s85 7 85 111v84c0 158 114 174 162 174c14 0 24 -1 24 -1v-74h-14c-26 0 -87 -9 -87 -105v-103c0 -99 -81 -127 -81 -127v-2s81 -24 81 -127v-115c0 -96 61 -105 87 -105h14v-74s-10 -2 -24 -2c-48 0 -162 16 -162 175z" />
    <glyph glyph-name="bar" unicode="|" horiz-adv-x="275" 
d="M95 -159v951h85v-951h-85z" />
    <glyph glyph-name="braceright" unicode="}" horiz-adv-x="337" 
d="M34 -22h14c25 0 86 9 86 105v115c0 103 81 127 81 127v2s-81 28 -81 127v103c0 96 -61 105 -86 105h-14v74s9 1 23 1c48 0 162 -16 162 -174v-84c0 -104 85 -111 85 -111v-86s-85 -7 -85 -109v-96c0 -159 -114 -175 -162 -175c-14 0 -23 2 -23 2v74z" />
    <glyph glyph-name="asciitilde" unicode="~" horiz-adv-x="609" 
d="M67 204c0 116 53 169 139 169c106 0 116 -98 192 -98c52 0 67 52 67 94h79c0 -117 -54 -169 -140 -169c-105 0 -116 97 -192 97c-52 0 -66 -52 -66 -93h-79z" />
    <glyph glyph-name="exclamdown" unicode="&#xa1;" horiz-adv-x="240" 
d="M69 408v98h101v-98h-101zM70 -200l6 512h87l7 -512h-100z" />
    <glyph glyph-name="cent" unicode="&#xa2;" horiz-adv-x="554" 
d="M252 -13v86c-131 18 -211 136 -211 280c0 145 80 263 211 281v84h71v-84c88 -13 154 -72 188 -155l-88 -34c-25 56 -67 99 -132 99c-97 0 -151 -83 -151 -191c0 -111 51 -190 151 -190c64 0 107 42 132 99l88 -35c-32 -74 -94 -144 -188 -154v-86h-71z" />
    <glyph glyph-name="sterling" unicode="&#xa3;" horiz-adv-x="614" 
d="M43 0v80h86v239h-68v70h68v136c0 111 91 193 217 193c101 0 167 -62 167 -62l-55 -68s-50 41 -111 41c-74 0 -118 -48 -118 -108v-132h180v-70h-180v-237h255v114h87v-196h-528z" />
    <glyph glyph-name="yen" unicode="&#xa5;" horiz-adv-x="634" 
d="M104 199v63h163v37l-27 48h-136v63h103l-165 296h113l118 -220c22 -47 43 -102 43 -102h2s21 55 43 102l119 220h113l-166 -296h102v-63h-135l-27 -48v-37h162v-63h-162v-199h-100v199h-163z" />
    <glyph glyph-name="section" unicode="&#xa7;" horiz-adv-x="435" 
d="M137 111l-71 390c-4 15 -5 31 -5 46c0 97 70 171 188 171c87 0 141 -51 141 -51l-46 -64s-40 34 -95 34c-59 0 -106 -33 -106 -101c0 -12 2 -25 5 -40l68 -385h-79zM45 -11l44 67s42 -37 97 -37c59 0 106 35 106 105c0 13 -1 28 -6 45l-66 376h79l70 -390
c4 -16 5 -31 5 -45c0 -99 -71 -172 -188 -172c-87 0 -141 51 -141 51z" />
    <glyph glyph-name="dieresis" unicode="&#xa8;" horiz-adv-x="499" 
d="M306 781v101h86v-101h-86zM106 781v101h86v-101h-86z" />
    <glyph glyph-name="copyright" unicode="&#xa9;" horiz-adv-x="802" 
d="M45 353c0 203 158 365 355 365c199 0 358 -162 358 -365s-159 -365 -358 -365c-197 0 -355 162 -355 365zM118 353c0 -167 123 -297 282 -297c161 0 285 130 285 297s-124 297 -285 297c-159 0 -282 -130 -282 -297zM210 352c0 105 76 200 197 200c115 0 163 -99 163 -99
l-61 -33s-34 63 -99 63c-79 0 -124 -62 -124 -131c0 -71 43 -131 124 -131c66 0 99 63 99 63l61 -33s-48 -99 -163 -99c-121 0 -197 94 -197 200z" />
    <glyph glyph-name="ordfeminine" unicode="&#xaa;" horiz-adv-x="424" 
d="M183 382c-54 0 -109 34 -109 97c0 107 135 110 189 110h10v6c0 47 -28 63 -64 63c-44 0 -83 -28 -83 -28l-29 49s45 37 121 37c83 0 127 -45 127 -126v-201h-68v46h-2s-27 -53 -92 -53zM198 441c45 0 74 47 74 89v8h-11c-39 0 -114 -3 -114 -54c0 -23 18 -43 51 -43z
M74 265v57h274v-57h-274z" />
    <glyph glyph-name="guillemotleft" unicode="&#xab;" horiz-adv-x="561" 
d="M245 282l164 206h97l-164 -206l164 -205h-97zM207 77l-164 205l164 206h97l-164 -206l164 -205h-97z" />
    <glyph glyph-name="logicalnot" unicode="&#xac;" horiz-adv-x="594" 
d="M49 340v78h477v-267h-81v189h-396z" />
    <glyph glyph-name="registered" unicode="&#xae;" horiz-adv-x="802" 
d="M45 353c0 203 158 365 355 365c199 0 358 -162 358 -365s-159 -365 -358 -365c-197 0 -355 162 -355 365zM118 353c0 -167 123 -297 282 -297c161 0 285 130 285 297s-124 297 -285 297c-159 0 -282 -130 -282 -297zM278 166v377h145c71 0 119 -45 119 -115
c0 -58 -38 -92 -69 -100v-2s4 -4 13 -21l72 -139h-78l-70 146h-61v-146h-71zM349 364h60c37 0 61 24 61 64c0 39 -24 61 -61 61h-60v-125z" />
    <glyph glyph-name="macron" unicode="&#xaf;" horiz-adv-x="499" 
d="M122 784v71h255v-71h-255z" />
    <glyph glyph-name="degree" unicode="&#xb0;" horiz-adv-x="391" 
d="M195 422c-84 0 -151 66 -151 148c0 81 67 148 151 148s152 -67 152 -148c0 -82 -68 -148 -152 -148zM195 496c42 0 75 33 75 74s-33 75 -75 75c-41 0 -73 -34 -73 -75s32 -74 73 -74z" />
    <glyph glyph-name="plusminus" unicode="&#xb1;" horiz-adv-x="613" 
d="M42 246v78h224v246h82v-246h223v-78h-223v-246h-82v246h-224zM58 -95h497v-78h-497v78z" />
    <glyph glyph-name="twosuperior" unicode="&#xb2;" horiz-adv-x="373" 
d="M33 463c0 160 214 174 214 273c0 37 -30 65 -71 65c-50 0 -85 -48 -85 -48l-49 45s47 72 140 72c85 0 141 -54 141 -128c0 -147 -206 -155 -212 -257h157v51h63v-113h-294s-4 25 -4 40z" />
    <glyph glyph-name="threesuperior" unicode="&#xb3;" horiz-adv-x="374" 
d="M46 747v113h280v-48l-112 -130c61 -9 120 -46 120 -124c0 -77 -63 -145 -156 -145c-100 0 -147 66 -147 66l42 51s34 -50 102 -50c43 0 83 32 83 76c0 47 -44 71 -88 71h-32l-16 38l95 115c11 12 22 20 22 20v3s-14 -3 -30 -3h-100v-53h-63z" />
    <glyph glyph-name="acute" unicode="&#xb4;" horiz-adv-x="499" 
d="M144 755l104 127h111l-124 -127h-91z" />
    <glyph glyph-name="mu" unicode="&#xb5;" horiz-adv-x="595" 
d="M71 -200v706h97v-302c0 -70 14 -126 94 -126c104 0 165 91 165 191v237h97v-506h-94v69c0 18 2 35 2 35h-3s-47 -116 -186 -116c-67 0 -91 31 -91 31h-2s7 -49 7 -78v-141h-86z" />
    <glyph glyph-name="mu" unicode="&#x3bc;" horiz-adv-x="595" 
d="M71 -200v706h97v-302c0 -70 14 -126 94 -126c104 0 165 91 165 191v237h97v-506h-94v69c0 18 2 35 2 35h-3s-47 -116 -186 -116c-67 0 -91 31 -91 31h-2s7 -49 7 -78v-141h-86z" />
    <glyph glyph-name="paragraph" unicode="&#xb6;" horiz-adv-x="596" 
d="M272 -50v291c-129 0 -237 102 -237 233s107 232 236 232h272v-86h-196v-670h-75zM409 -50v613h74v-613h-74z" />
    <glyph glyph-name="periodcentered" unicode="&#xb7;" horiz-adv-x="280" 
d="M89 237v106h102v-106h-102z" />
    <glyph glyph-name="cedilla" unicode="&#xb8;" horiz-adv-x="499" 
d="M186 -97l32 122l51 -10v-8l-16 -63c44 -3 79 -32 79 -75c0 -62 -55 -86 -111 -86c-30 0 -54 7 -54 7v53s19 -6 44 -6c23 0 51 5 51 32c0 24 -27 34 -59 34h-17z" />
    <glyph glyph-name="onesuperior" unicode="&#xb9;" horiz-adv-x="336" 
d="M37 423v62h103v247c0 18 3 31 3 31h-2s-5 -9 -16 -18l-48 -47l-46 49l117 113h67v-375h102v-62h-280z" />
    <glyph glyph-name="ordmasculine" unicode="&#xba;" horiz-adv-x="471" 
d="M235 384c-94 0 -171 70 -171 168c0 95 77 165 170 165c95 0 172 -70 172 -165c0 -98 -77 -168 -171 -168zM235 449c54 0 98 42 98 103c0 59 -44 101 -98 101c-55 0 -99 -42 -99 -101c0 -61 44 -103 99 -103zM80 265v57h312v-57h-312z" />
    <glyph glyph-name="guillemotright" unicode="&#xbb;" horiz-adv-x="560" 
d="M256 77l164 205l-164 206h97l164 -206l-164 -205h-97zM55 77l164 205l-164 206h97l164 -206l-164 -205h-97z" />
    <glyph glyph-name="onequarter" unicode="&#xbc;" horiz-adv-x="957" 
d="M785 0v109h-208v48l201 280h81v-269h62v-59h-62v-109h-74zM654 168h131v146c0 20 4 45 4 45h-3s-9 -22 -21 -39l-111 -150v-2zM268 0l336 706h75l-335 -706h-76zM56 269v62h103v247c0 18 3 31 3 31h-2s-5 -9 -16 -18l-48 -47l-46 49l117 113h67v-375h102v-62h-280z" />
    <glyph glyph-name="foursuperior" unicode="&#x2074;" horiz-adv-x="392" 
d="M229 423v109h-208v48l201 280h81v-269h62v-59h-62v-109h-74zM98 591h131v146c0 20 4 45 4 45h-3s-9 -22 -21 -39l-111 -150v-2z" />
    <glyph glyph-name="fraction" unicode="&#x2044;" horiz-adv-x="149" 
d="M-131 0l336 706h75l-335 -706h-76z" />
    <glyph glyph-name="onehalf" unicode="&#xbd;" horiz-adv-x="941" 
d="M599 40c0 160 214 174 214 273c0 37 -30 65 -71 65c-50 0 -85 -48 -85 -48l-49 45s47 72 140 72c85 0 141 -54 141 -128c0 -147 -206 -155 -212 -257h157v51h63v-113h-294s-4 25 -4 40zM263 0l336 706h75l-335 -706h-76zM49 269v62h103v247c0 18 3 31 3 31h-2
s-5 -9 -16 -18l-48 -47l-46 49l117 113h67v-375h102v-62h-280z" />
    <glyph glyph-name="threequarters" unicode="&#xbe;" horiz-adv-x="970" 
d="M796 0v109h-208v48l201 280h81v-269h62v-59h-62v-109h-74zM665 168h131v146c0 20 4 45 4 45h-3s-9 -22 -21 -39l-111 -150v-2zM61 593v113h280v-48l-112 -130c61 -9 120 -46 120 -124c0 -77 -63 -145 -156 -145c-100 0 -147 66 -147 66l42 51s34 -50 102 -50
c43 0 83 32 83 76c0 47 -44 71 -88 71h-32l-16 38l95 115c11 12 22 20 22 20v3s-14 -3 -30 -3h-100v-53h-63zM278 0l336 706h75l-335 -706h-76z" />
    <glyph glyph-name="questiondown" unicode="&#xbf;" horiz-adv-x="465" 
d="M222 408v98h100v-98h-100zM48 -28c0 165 177 182 177 303v37h94v-43c0 -152 -170 -175 -170 -289c0 -56 49 -100 115 -100c63 0 114 43 114 43l53 -69s-65 -64 -174 -64c-114 0 -209 71 -209 182z" />
    <glyph glyph-name="Agrave" unicode="&#xc0;" horiz-adv-x="723" 
d="M12 0v78h68l225 628h113l225 -628h68v-78h-245v78h75l-55 157h-250l-55 -157h76v-78h-245zM261 315h200l-86 245c-10 29 -12 54 -12 54h-3s-3 -25 -12 -54zM329 755l-124 127h112l103 -127h-91z" />
    <glyph glyph-name="Aacute" unicode="&#xc1;" horiz-adv-x="721" 
d="M11 0v78h68l225 628h113l225 -628h68v-78h-245v78h75l-55 157h-250l-55 -157h76v-78h-245zM260 315h200l-86 245c-10 29 -12 54 -12 54h-3s-3 -25 -12 -54zM299 755l104 127h111l-124 -127h-91z" />
    <glyph glyph-name="Acircumflex" unicode="&#xc2;" horiz-adv-x="721" 
d="M11 0v78h68l225 628h113l225 -628h68v-78h-245v78h75l-55 157h-250l-55 -157h76v-78h-245zM260 315h200l-86 245c-10 29 -12 54 -12 54h-3s-3 -25 -12 -54zM219 755l88 127h105l88 -127h-87l-53 80h-2l-52 -80h-87z" />
    <glyph glyph-name="circumflex" unicode="&#x2c6;" horiz-adv-x="499" 
d="M109 755l88 127h105l88 -127h-87l-53 80h-2l-52 -80h-87z" />
    <glyph glyph-name="Atilde" unicode="&#xc3;" horiz-adv-x="721" 
d="M11 0v78h68l225 628h113l225 -628h68v-78h-245v78h75l-55 157h-250l-55 -157h76v-78h-245zM260 315h200l-86 245c-10 29 -12 54 -12 54h-3s-3 -25 -12 -54zM190 756c0 84 34 127 102 127c72 0 86 -67 127 -67c32 0 40 35 40 64h72c0 -83 -34 -127 -102 -127
c-72 0 -86 67 -127 67c-32 0 -40 -34 -40 -64h-72z" />
    <glyph glyph-name="tilde" unicode="&#x2dc;" horiz-adv-x="499" 
d="M79 756c0 84 34 127 102 127c72 0 86 -67 127 -67c32 0 40 35 40 64h72c0 -83 -34 -127 -102 -127c-72 0 -86 67 -127 67c-32 0 -40 -34 -40 -64h-72z" />
    <glyph glyph-name="Adieresis" unicode="&#xc4;" horiz-adv-x="721" 
d="M11 0v78h68l225 628h113l225 -628h68v-78h-245v78h75l-55 157h-250l-55 -157h76v-78h-245zM260 315h200l-86 245c-10 29 -12 54 -12 54h-3s-3 -25 -12 -54zM417 781v101h86v-101h-86zM217 781v101h86v-101h-86z" />
    <glyph glyph-name="Aring" unicode="&#xc5;" horiz-adv-x="721" 
d="M11 0v78h68l225 628h113l225 -628h68v-78h-245v78h75l-55 157h-250l-55 -157h76v-78h-245zM260 315h200l-86 245c-10 29 -12 54 -12 54h-3s-3 -25 -12 -54zM360 739c-48 0 -92 30 -92 80c0 52 44 83 92 83s94 -31 94 -83c0 -50 -46 -80 -94 -80zM360 783
c23 0 37 15 37 36c0 24 -14 39 -37 39c-21 0 -36 -15 -36 -39c0 -21 14 -36 36 -36z" />
    <glyph glyph-name="ring" unicode="&#x2da;" horiz-adv-x="500" 
d="M250 739c-48 0 -92 30 -92 80c0 52 44 83 92 83s94 -31 94 -83c0 -50 -46 -80 -94 -80zM250 783c23 0 37 15 37 36c0 24 -14 39 -37 39c-21 0 -36 -15 -36 -39c0 -21 14 -36 36 -36z" />
    <glyph glyph-name="AE" unicode="&#xc6;" horiz-adv-x="941" 
d="M12 0v78h63l227 551h-77v77h648v-164h-83v82h-237v-227h248v-82h-248v-233h254v83h83v-165h-523v78h86v238h-180l-97 -238h76v-78h-240zM303 394h150v230h-56z" />
    <glyph glyph-name="Ccedilla" unicode="&#xc7;" horiz-adv-x="744" 
d="M348 -97l23 87c-190 20 -322 175 -322 367c0 207 157 361 361 361c85 0 269 -31 269 -140v-86h-93v55c0 62 -107 85 -172 85c-151 0 -262 -111 -262 -271c0 -167 114 -286 268 -286c50 0 176 18 176 83v55h93v-86c0 -100 -164 -136 -263 -139l-10 -44
c43 -3 79 -32 79 -75c0 -62 -56 -86 -111 -86c-31 0 -55 7 -55 7v53s19 -6 45 -6c23 0 50 5 50 32c0 24 -26 34 -58 34h-18z" />
    <glyph glyph-name="Egrave" unicode="&#xc8;" horiz-adv-x="632" 
d="M53 0v78h88v551h-88v77h511v-164h-87v82h-236v-227h250v-82h-250v-233h253v85h87v-167h-528zM294 755l-124 127h112l103 -127h-91z" />
    <glyph glyph-name="Eacute" unicode="&#xc9;" horiz-adv-x="632" 
d="M266 755l104 127h111l-124 -127h-91zM53 0v78h88v551h-88v77h511v-164h-87v82h-236v-227h250v-82h-250v-233h253v85h87v-167h-528z" />
    <glyph glyph-name="Ecircumflex" unicode="&#xca;" horiz-adv-x="632" 
d="M186 755l88 127h105l88 -127h-87l-53 80h-2l-52 -80h-87zM53 0v78h88v551h-88v77h511v-164h-87v82h-236v-227h250v-82h-250v-233h253v85h87v-167h-528z" />
    <glyph glyph-name="Edieresis" unicode="&#xcb;" horiz-adv-x="632" 
d="M383 781v101h86v-101h-86zM183 781v101h86v-101h-86zM53 0v78h88v551h-88v77h511v-164h-87v82h-236v-227h250v-82h-250v-233h253v85h87v-167h-528z" />
    <glyph glyph-name="Igrave" unicode="&#xcc;" horiz-adv-x="382" 
d="M53 0v78h88v551h-88v77h277v-77h-89v-551h89v-78h-277zM160 755l-124 127h112l103 -127h-91z" />
    <glyph glyph-name="Iacute" unicode="&#xcd;" horiz-adv-x="382" 
d="M53 0v78h88v551h-88v77h277v-77h-89v-551h89v-78h-277zM131 755l104 127h111l-124 -127h-91z" />
    <glyph glyph-name="Icircumflex" unicode="&#xce;" horiz-adv-x="382" 
d="M53 0v78h88v551h-88v77h277v-77h-89v-551h89v-78h-277zM51 755l88 127h105l88 -127h-87l-53 80h-2l-52 -80h-87z" />
    <glyph glyph-name="Idieresis" unicode="&#xcf;" horiz-adv-x="382" 
d="M53 0v78h88v551h-88v77h277v-77h-89v-551h89v-78h-277zM248 781v101h86v-101h-86zM48 781v101h86v-101h-86z" />
    <glyph glyph-name="Eth" unicode="&#xd0;" horiz-adv-x="787" 
d="M53 0v78h88v234h-75v82h75v235h-88v77h324c216 0 358 -129 358 -352c0 -224 -142 -354 -358 -354h-324zM241 82h129c157 0 261 95 261 272c0 175 -105 270 -261 270h-129v-230h155v-82h-155v-230z" />
    <glyph glyph-name="Ntilde" unicode="&#xd1;" horiz-adv-x="838" 
d="M53 0v78h88v551h-88v77h187l347 -506c12 -20 24 -51 24 -51h3s-5 35 -5 57v423h-90v77h279v-77h-89v-629h-98l-347 506c-13 20 -24 51 -24 51h-3s5 -35 4 -57v-422h91v-78h-279zM254 756c0 84 34 127 102 127c72 0 86 -67 127 -67c32 0 40 35 40 64h72
c0 -83 -34 -127 -102 -127c-72 0 -86 67 -127 67c-32 0 -40 -34 -40 -64h-72z" />
    <glyph glyph-name="Ograve" unicode="&#xd2;" horiz-adv-x="822" 
d="M48 358c0 203 158 360 363 360c204 0 363 -157 363 -360c0 -208 -159 -370 -363 -370c-205 0 -363 162 -363 370zM151 358c0 -159 116 -281 260 -281c143 0 259 122 259 281c0 154 -116 272 -259 272c-144 0 -260 -118 -260 -272zM379 755l-124 127h112l103 -127h-91z
" />
    <glyph glyph-name="Oacute" unicode="&#xd3;" horiz-adv-x="822" 
d="M350 755l104 127h111l-124 -127h-91zM48 358c0 203 158 360 363 360c204 0 363 -157 363 -360c0 -208 -159 -370 -363 -370c-205 0 -363 162 -363 370zM151 358c0 -159 116 -281 260 -281c143 0 259 122 259 281c0 154 -116 272 -259 272c-144 0 -260 -118 -260 -272z
" />
    <glyph glyph-name="Ocircumflex" unicode="&#xd4;" horiz-adv-x="822" 
d="M270 755l88 127h105l88 -127h-87l-53 80h-2l-52 -80h-87zM48 358c0 203 158 360 363 360c204 0 363 -157 363 -360c0 -208 -159 -370 -363 -370c-205 0 -363 162 -363 370zM151 358c0 -159 116 -281 260 -281c143 0 259 122 259 281c0 154 -116 272 -259 272
c-144 0 -260 -118 -260 -272z" />
    <glyph glyph-name="Otilde" unicode="&#xd5;" horiz-adv-x="822" 
d="M48 358c0 203 158 360 363 360c204 0 363 -157 363 -360c0 -208 -159 -370 -363 -370c-205 0 -363 162 -363 370zM151 358c0 -159 116 -281 260 -281c143 0 259 122 259 281c0 154 -116 272 -259 272c-144 0 -260 -118 -260 -272zM241 756c0 84 34 127 102 127
c72 0 86 -67 127 -67c32 0 40 35 40 64h72c0 -83 -34 -127 -102 -127c-72 0 -86 67 -127 67c-32 0 -40 -34 -40 -64h-72z" />
    <glyph glyph-name="Odieresis" unicode="&#xd6;" horiz-adv-x="822" 
d="M468 781v101h86v-101h-86zM268 781v101h86v-101h-86zM48 358c0 203 158 360 363 360c204 0 363 -157 363 -360c0 -208 -159 -370 -363 -370c-205 0 -363 162 -363 370zM151 358c0 -159 116 -281 260 -281c143 0 259 122 259 281c0 154 -116 272 -259 272
c-144 0 -260 -118 -260 -272z" />
    <glyph glyph-name="multiply" unicode="&#xd7;" horiz-adv-x="613" 
d="M46 55l207 230l-207 230l55 55l205 -228l205 228l55 -55l-208 -230l208 -230l-55 -55l-205 227l-205 -227z" />
    <glyph glyph-name="Oslash" unicode="&#xd8;" horiz-adv-x="821" 
d="M122 9l49 68c-76 68 -123 167 -123 281c0 203 159 360 362 360c69 0 132 -18 186 -50l45 64l49 -34l-45 -63c79 -66 128 -165 128 -277c0 -208 -159 -370 -363 -370c-71 0 -135 19 -191 54l-48 -67zM229 158l311 433c-38 23 -82 36 -130 36c-144 0 -260 -115 -260 -269
c0 -80 30 -151 79 -200zM274 119c39 -26 86 -40 136 -40c145 0 261 120 261 279c0 79 -32 150 -83 197z" />
    <glyph glyph-name="Ugrave" unicode="&#xd9;" horiz-adv-x="797" 
d="M120 263v366h-89v77h278v-77h-89v-365c0 -46 9 -86 27 -115c29 -46 84 -72 152 -72c67 0 123 26 152 74c17 29 27 68 27 114v364h-89v77h277v-77h-88v-366c0 -67 -18 -128 -49 -172c-48 -68 -134 -103 -230 -103c-100 0 -184 38 -232 103c-33 45 -47 104 -47 172z
M367 755l-124 127h112l103 -127h-91z" />
    <glyph glyph-name="Uacute" unicode="&#xda;" horiz-adv-x="797" 
d="M338 755l104 127h111l-124 -127h-91zM120 263v366h-89v77h278v-77h-89v-365c0 -46 9 -86 27 -115c29 -46 84 -72 152 -72c67 0 123 26 152 74c17 29 27 68 27 114v364h-89v77h277v-77h-88v-366c0 -67 -18 -128 -49 -172c-48 -68 -134 -103 -230 -103
c-100 0 -184 38 -232 103c-33 45 -47 104 -47 172z" />
    <glyph glyph-name="Ucircumflex" unicode="&#xdb;" horiz-adv-x="797" 
d="M258 755l88 127h105l88 -127h-87l-53 80h-2l-52 -80h-87zM120 263v366h-89v77h278v-77h-89v-365c0 -46 9 -86 27 -115c29 -46 84 -72 152 -72c67 0 123 26 152 74c17 29 27 68 27 114v364h-89v77h277v-77h-88v-366c0 -67 -18 -128 -49 -172c-48 -68 -134 -103 -230 -103
c-100 0 -184 38 -232 103c-33 45 -47 104 -47 172z" />
    <glyph glyph-name="Udieresis" unicode="&#xdc;" horiz-adv-x="797" 
d="M456 781v101h86v-101h-86zM256 781v101h86v-101h-86zM120 263v366h-89v77h278v-77h-89v-365c0 -46 9 -86 27 -115c29 -46 84 -72 152 -72c67 0 123 26 152 74c17 29 27 68 27 114v364h-89v77h277v-77h-88v-366c0 -67 -18 -128 -49 -172c-48 -68 -134 -103 -230 -103
c-100 0 -184 38 -232 103c-33 45 -47 104 -47 172z" />
    <glyph glyph-name="Yacute" unicode="&#xdd;" horiz-adv-x="650" 
d="M186 0v78h89v221l-198 330h-67v77h243v-77h-74l131 -222c8 -15 14 -30 14 -30h2s6 15 15 30l131 222h-73v77h241v-77h-67l-198 -330v-221h89v-78h-278zM266 755l104 127h111l-124 -127h-91z" />
    <glyph glyph-name="Thorn" unicode="&#xde;" horiz-adv-x="650" 
d="M53 0v78h88v551h-88v77h277v-77h-90v-72h167c129 0 214 -73 214 -192c0 -121 -85 -197 -215 -197h-166v-90h90v-78h-277zM240 246h146c85 0 134 43 134 119c0 75 -49 114 -133 114h-147v-233z" />
    <glyph glyph-name="germandbls" unicode="&#xdf;" horiz-adv-x="622" 
d="M32 0v75h80v455c0 123 107 188 216 188c111 0 190 -72 190 -161c0 -97 -101 -126 -101 -186c0 -63 179 -99 179 -226c0 -102 -82 -152 -171 -152c-93 0 -141 29 -141 29v86s56 -31 130 -31c44 0 84 21 84 72c0 81 -179 112 -179 219c0 83 100 115 100 188
c0 39 -32 78 -95 78c-58 0 -116 -36 -116 -111v-523h-176z" />
    <glyph glyph-name="agrave" unicode="&#xe0;" 
d="M33 141c0 159 211 170 295 170h32v19c0 80 -46 108 -108 108c-80 0 -145 -49 -145 -49l-39 69s74 60 192 60c129 0 197 -67 197 -195v-226c0 -15 8 -22 22 -22h51v-75h-101c-45 0 -63 22 -63 55v7c0 20 4 33 4 33h-2s-44 -107 -167 -107c-84 0 -168 49 -168 153zM131 149
c0 -45 33 -86 91 -86c86 0 139 88 139 164v21h-25c-46 0 -205 -2 -205 -99zM231 579l-124 127h112l103 -127h-91z" />
    <glyph glyph-name="aacute" unicode="&#xe1;" 
d="M33 141c0 159 211 170 295 170h32v19c0 80 -46 108 -108 108c-80 0 -145 -49 -145 -49l-39 69s74 60 192 60c129 0 197 -67 197 -195v-226c0 -15 8 -22 22 -22h51v-75h-101c-45 0 -63 22 -63 55v7c0 20 4 33 4 33h-2s-44 -107 -167 -107c-84 0 -168 49 -168 153zM131 149
c0 -45 33 -86 91 -86c86 0 139 88 139 164v21h-25c-46 0 -205 -2 -205 -99zM202 579l104 127h111l-124 -127h-91z" />
    <glyph glyph-name="acircumflex" unicode="&#xe2;" 
d="M33 141c0 159 211 170 295 170h32v19c0 80 -46 108 -108 108c-80 0 -145 -49 -145 -49l-39 69s74 60 192 60c129 0 197 -67 197 -195v-226c0 -15 8 -22 22 -22h51v-75h-101c-45 0 -63 22 -63 55v7c0 20 4 33 4 33h-2s-44 -107 -167 -107c-84 0 -168 49 -168 153zM131 149
c0 -45 33 -86 91 -86c86 0 139 88 139 164v21h-25c-46 0 -205 -2 -205 -99zM122 579l88 127h105l88 -127h-87l-53 80h-2l-52 -80h-87z" />
    <glyph glyph-name="atilde" unicode="&#xe3;" 
d="M33 141c0 159 211 170 295 170h32v19c0 80 -46 108 -108 108c-80 0 -145 -49 -145 -49l-39 69s74 60 192 60c129 0 197 -67 197 -195v-226c0 -15 8 -22 22 -22h51v-75h-101c-45 0 -63 22 -63 55v7c0 20 4 33 4 33h-2s-44 -107 -167 -107c-84 0 -168 49 -168 153zM131 149
c0 -45 33 -86 91 -86c86 0 139 88 139 164v21h-25c-46 0 -205 -2 -205 -99zM93 580c0 84 34 127 102 127c72 0 86 -67 127 -67c32 0 40 35 40 64h72c0 -83 -34 -127 -102 -127c-72 0 -86 67 -127 67c-32 0 -40 -34 -40 -64h-72z" />
    <glyph glyph-name="adieresis" unicode="&#xe4;" 
d="M33 141c0 159 211 170 295 170h32v19c0 80 -46 108 -108 108c-80 0 -145 -49 -145 -49l-39 69s74 60 192 60c129 0 197 -67 197 -195v-226c0 -15 8 -22 22 -22h51v-75h-101c-45 0 -63 22 -63 55v7c0 20 4 33 4 33h-2s-44 -107 -167 -107c-84 0 -168 49 -168 153zM131 149
c0 -45 33 -86 91 -86c86 0 139 88 139 164v21h-25c-46 0 -205 -2 -205 -99zM320 605v101h86v-101h-86zM120 605v101h86v-101h-86z" />
    <glyph glyph-name="aring" unicode="&#xe5;" 
d="M33 141c0 159 211 170 295 170h32v19c0 80 -46 108 -108 108c-80 0 -145 -49 -145 -49l-39 69s74 60 192 60c129 0 197 -67 197 -195v-226c0 -15 8 -22 22 -22h51v-75h-101c-45 0 -63 22 -63 55v7c0 20 4 33 4 33h-2s-44 -107 -167 -107c-84 0 -168 49 -168 153zM131 149
c0 -45 33 -86 91 -86c86 0 139 88 139 164v21h-25c-46 0 -205 -2 -205 -99zM263 563c-48 0 -92 30 -92 80c0 52 44 83 92 83s94 -31 94 -83c0 -50 -46 -80 -94 -80zM263 607c23 0 37 15 37 36c0 24 -14 39 -37 39c-21 0 -36 -15 -36 -39c0 -21 14 -36 36 -36z" />
    <glyph glyph-name="ae" unicode="&#xe6;" horiz-adv-x="863" 
d="M34 141c0 159 194 167 300 167h27v17c0 86 -47 113 -111 113c-80 0 -144 -49 -144 -49l-39 69s73 60 191 60c93 0 140 -35 164 -89h2c41 59 103 89 180 89c139 0 217 -105 217 -236c0 -13 -3 -37 -3 -37h-363c5 -116 78 -176 169 -176c86 0 149 59 149 59l40 -68
s-75 -72 -195 -72c-102 0 -178 48 -218 127h-2c-9 -26 -60 -127 -190 -127c-93 0 -174 55 -174 153zM459 308h264c-3 87 -59 133 -121 133c-74 0 -129 -47 -143 -133zM131 146c0 -43 33 -82 94 -82c83 0 137 87 137 163v18h-47c-77 0 -184 -12 -184 -99z" />
    <glyph glyph-name="ccedilla" unicode="&#xe7;" horiz-adv-x="553" 
d="M243 -97l24 89c-126 18 -227 114 -227 260c0 155 117 266 268 266c75 0 198 -28 198 -115v-62h-86v35c0 39 -64 58 -109 58c-102 0 -172 -72 -172 -180c0 -115 81 -182 178 -182c86 0 144 51 162 65l37 -71c-22 -20 -93 -75 -195 -78l-10 -44c43 -3 79 -32 79 -75
c0 -62 -56 -86 -111 -86c-30 0 -55 7 -55 7v53s20 -6 45 -6c23 0 50 5 50 32c0 24 -26 34 -58 34h-18z" />
    <glyph glyph-name="egrave" unicode="&#xe8;" 
d="M41 253c0 161 109 265 253 265s219 -106 219 -237c0 -13 -3 -37 -3 -37h-370c6 -112 85 -172 175 -172c88 0 151 57 151 57l40 -71s-76 -70 -197 -70c-159 0 -268 115 -268 265zM144 306h269c-3 89 -57 135 -121 135c-74 0 -134 -50 -148 -135zM263 579l-124 127h112
l103 -127h-91z" />
    <glyph glyph-name="eacute" unicode="&#xe9;" 
d="M234 579l104 127h111l-124 -127h-91zM41 253c0 161 109 265 253 265s219 -106 219 -237c0 -13 -3 -37 -3 -37h-370c6 -112 85 -172 175 -172c88 0 151 57 151 57l40 -71s-76 -70 -197 -70c-159 0 -268 115 -268 265zM144 306h269c-3 89 -57 135 -121 135
c-74 0 -134 -50 -148 -135z" />
    <glyph glyph-name="ecircumflex" unicode="&#xea;" 
d="M154 579l88 127h105l88 -127h-87l-53 80h-2l-52 -80h-87zM41 253c0 161 109 265 253 265s219 -106 219 -237c0 -13 -3 -37 -3 -37h-370c6 -112 85 -172 175 -172c88 0 151 57 151 57l40 -71s-76 -70 -197 -70c-159 0 -268 115 -268 265zM144 306h269
c-3 89 -57 135 -121 135c-74 0 -134 -50 -148 -135z" />
    <glyph glyph-name="edieresis" unicode="&#xeb;" 
d="M352 605v101h86v-101h-86zM152 605v101h86v-101h-86zM41 253c0 161 109 265 253 265s219 -106 219 -237c0 -13 -3 -37 -3 -37h-370c6 -112 85 -172 175 -172c88 0 151 57 151 57l40 -71s-76 -70 -197 -70c-159 0 -268 115 -268 265zM144 306h269c-3 89 -57 135 -121 135
c-74 0 -134 -50 -148 -135z" />
    <glyph glyph-name="igrave" unicode="&#xec;" horiz-adv-x="323" 
d="M47 0v75h74v356h-76v75h173v-431h73v-75h-244zM137 579l-124 127h112l103 -127h-91z" />
    <glyph glyph-name="dotlessi" unicode="&#x131;" horiz-adv-x="323" 
d="M47 0v75h74v356h-76v75h173v-431h73v-75h-244z" />
    <glyph glyph-name="iacute" unicode="&#xed;" horiz-adv-x="323" 
d="M108 579l104 127h111l-124 -127h-91zM47 0v75h74v356h-76v75h173v-431h73v-75h-244z" />
    <glyph glyph-name="icircumflex" unicode="&#xee;" horiz-adv-x="323" 
d="M28 579l88 127h105l88 -127h-87l-53 80h-2l-52 -80h-87zM47 0v75h74v356h-76v75h173v-431h73v-75h-244z" />
    <glyph glyph-name="idieresis" unicode="&#xef;" horiz-adv-x="323" 
d="M47 0v75h74v356h-76v75h173v-431h73v-75h-244zM208 605v101h86v-101h-86zM35 605v101h86v-101h-86z" />
    <glyph glyph-name="eth" unicode="&#xf0;" horiz-adv-x="590" 
d="M43 235c0 118 82 231 236 231c81 0 123 -42 123 -42h2c-21 56 -61 103 -111 136l-178 -78l-10 52l129 58c-40 20 -90 38 -134 48l27 79c70 -16 148 -44 212 -83l133 60l10 -53l-95 -43c85 -70 146 -179 146 -325c0 -135 -71 -287 -253 -287c-152 0 -237 122 -237 247z
M141 233c0 -82 48 -161 141 -161c109 0 153 100 153 186c0 75 -55 130 -141 130c-104 0 -153 -77 -153 -155z" />
    <glyph glyph-name="ntilde" unicode="&#xf1;" horiz-adv-x="689" 
d="M48 0v75h79v334c0 15 -8 22 -22 22h-62v75h114c44 0 64 -19 64 -56v-26c0 -16 -3 -29 -3 -29h2c10 27 69 123 197 123c116 0 168 -65 168 -194v-249h80v-75h-177v302c0 71 -14 127 -95 127c-102 0 -169 -93 -169 -194v-160h80v-75h-256zM194 580c0 84 34 127 102 127
c72 0 86 -67 127 -67c32 0 40 35 40 64h72c0 -83 -34 -127 -102 -127c-72 0 -86 67 -127 67c-32 0 -40 -34 -40 -64h-72z" />
    <glyph glyph-name="ograve" unicode="&#xf2;" horiz-adv-x="626" 
d="M40 254c0 153 122 264 273 264s273 -111 273 -264c0 -154 -122 -266 -273 -266s-273 112 -273 266zM139 254c0 -106 78 -182 174 -182c95 0 174 76 174 182c0 105 -79 180 -174 180c-96 0 -174 -75 -174 -180zM281 579l-124 127h112l103 -127h-91z" />
    <glyph glyph-name="oacute" unicode="&#xf3;" horiz-adv-x="626" 
d="M253 579l104 127h111l-124 -127h-91zM40 254c0 153 122 264 273 264s273 -111 273 -264c0 -154 -122 -266 -273 -266s-273 112 -273 266zM139 254c0 -106 78 -182 174 -182c95 0 174 76 174 182c0 105 -79 180 -174 180c-96 0 -174 -75 -174 -180z" />
    <glyph glyph-name="ocircumflex" unicode="&#xf4;" horiz-adv-x="626" 
d="M173 579l88 127h105l88 -127h-87l-53 80h-2l-52 -80h-87zM40 254c0 153 122 264 273 264s273 -111 273 -264c0 -154 -122 -266 -273 -266s-273 112 -273 266zM139 254c0 -106 78 -182 174 -182c95 0 174 76 174 182c0 105 -79 180 -174 180c-96 0 -174 -75 -174 -180z
" />
    <glyph glyph-name="otilde" unicode="&#xf5;" horiz-adv-x="626" 
d="M40 254c0 153 122 264 273 264s273 -111 273 -264c0 -154 -122 -266 -273 -266s-273 112 -273 266zM139 254c0 -106 78 -182 174 -182c95 0 174 76 174 182c0 105 -79 180 -174 180c-96 0 -174 -75 -174 -180zM143 580c0 84 34 127 102 127c72 0 86 -67 127 -67
c32 0 40 35 40 64h72c0 -83 -34 -127 -102 -127c-72 0 -86 67 -127 67c-32 0 -40 -34 -40 -64h-72z" />
    <glyph glyph-name="odieresis" unicode="&#xf6;" horiz-adv-x="626" 
d="M370 605v101h86v-101h-86zM170 605v101h86v-101h-86zM40 254c0 153 122 264 273 264s273 -111 273 -264c0 -154 -122 -266 -273 -266s-273 112 -273 266zM139 254c0 -106 78 -182 174 -182c95 0 174 76 174 182c0 105 -79 180 -174 180c-96 0 -174 -75 -174 -180z" />
    <glyph glyph-name="divide" unicode="&#xf7;" horiz-adv-x="613" 
d="M259 435v91h94v-91h-94zM54 246v78h505v-78h-505zM259 44v91h94v-91h-94z" />
    <glyph glyph-name="oslash" unicode="&#xf8;" horiz-adv-x="626" 
d="M101 -5l37 53c-59 47 -97 121 -97 206c0 153 121 264 272 264c49 0 97 -13 137 -35l40 55l43 -30l-39 -54c55 -47 92 -119 92 -200c0 -154 -122 -266 -273 -266c-46 0 -92 12 -130 32l-39 -56zM193 124l206 287c-25 13 -55 23 -86 23c-95 0 -174 -75 -174 -180
c0 -52 23 -98 54 -130zM235 92c23 -12 51 -20 78 -20c96 0 174 76 174 182c0 48 -20 92 -48 123z" />
    <glyph glyph-name="ugrave" unicode="&#xf9;" horiz-adv-x="665" 
d="M105 182v249h-85v75h182v-304c0 -70 14 -126 95 -126c101 0 164 97 164 197v158h-85v75h182v-410c0 -14 8 -22 22 -22h53v-74h-105c-44 0 -64 20 -64 56v22c0 17 2 30 2 30h-2c-10 -27 -67 -120 -193 -120c-109 0 -166 60 -166 194zM287 579l-124 127h112l103 -127h-91z
" />
    <glyph glyph-name="uacute" unicode="&#xfa;" horiz-adv-x="665" 
d="M259 579l104 127h111l-124 -127h-91zM105 182v249h-85v75h182v-304c0 -70 14 -126 95 -126c101 0 164 97 164 197v158h-85v75h182v-410c0 -14 8 -22 22 -22h53v-74h-105c-44 0 -64 20 -64 56v22c0 17 2 30 2 30h-2c-10 -27 -67 -120 -193 -120c-109 0 -166 60 -166 194z
" />
    <glyph glyph-name="ucircumflex" unicode="&#xfb;" horiz-adv-x="665" 
d="M178 579l88 127h105l88 -127h-87l-53 80h-2l-52 -80h-87zM105 182v249h-85v75h182v-304c0 -70 14 -126 95 -126c101 0 164 97 164 197v158h-85v75h182v-410c0 -14 8 -22 22 -22h53v-74h-105c-44 0 -64 20 -64 56v22c0 17 2 30 2 30h-2c-10 -27 -67 -120 -193 -120
c-109 0 -166 60 -166 194z" />
    <glyph glyph-name="udieresis" unicode="&#xfc;" horiz-adv-x="665" 
d="M376 605v101h86v-101h-86zM176 605v101h86v-101h-86zM105 182v249h-85v75h182v-304c0 -70 14 -126 95 -126c101 0 164 97 164 197v158h-85v75h182v-410c0 -14 8 -22 22 -22h53v-74h-105c-44 0 -64 20 -64 56v22c0 17 2 30 2 30h-2c-10 -27 -67 -120 -193 -120
c-109 0 -166 60 -166 194z" />
    <glyph glyph-name="yacute" unicode="&#xfd;" horiz-adv-x="590" 
d="M64 -105c0 0 29 -24 72 -24s76 30 93 70l21 50l-177 440h-64v75h231v-75h-67l113 -301c7 -22 9 -44 9 -44h3s4 22 12 44l112 301h-65v75h224v-75h-63l-200 -511c-34 -86 -100 -130 -178 -130c-65 0 -109 32 -109 32zM240 579l104 127h111l-124 -127h-91z" />
    <glyph glyph-name="thorn" unicode="&#xfe;" horiz-adv-x="608" 
d="M3 631v75h179v-232c0 -25 -2 -42 -2 -42h2s39 86 160 86c137 0 224 -111 224 -265c0 -156 -93 -265 -227 -265c-117 0 -157 85 -157 85h-2s2 -18 2 -44v-154h79v-75h-256v75h80v756h-82zM179 252c0 -104 55 -180 145 -180c82 0 144 72 144 181c0 107 -57 181 -142 181
c-78 0 -147 -51 -147 -182z" />
    <glyph glyph-name="ydieresis" unicode="&#xff;" horiz-adv-x="590" 
d="M64 -105c0 0 29 -24 72 -24s76 30 93 70l21 50l-177 440h-64v75h231v-75h-67l113 -301c7 -22 9 -44 9 -44h3s4 22 12 44l112 301h-65v75h224v-75h-63l-200 -511c-34 -86 -100 -130 -178 -130c-65 0 -109 32 -109 32zM357 605v101h86v-101h-86zM157 605v101h86v-101h-86z
" />
    <glyph glyph-name="Amacron" unicode="&#x100;" horiz-adv-x="721" 
d="M11 0v78h68l225 628h113l225 -628h68v-78h-245v78h75l-55 157h-250l-55 -157h76v-78h-245zM260 315h200l-86 245c-10 29 -12 54 -12 54h-3s-3 -25 -12 -54zM233 784v71h255v-71h-255z" />
    <glyph glyph-name="amacron" unicode="&#x101;" 
d="M33 141c0 159 211 170 295 170h32v19c0 80 -46 108 -108 108c-80 0 -145 -49 -145 -49l-39 69s74 60 192 60c129 0 197 -67 197 -195v-226c0 -15 8 -22 22 -22h51v-75h-101c-45 0 -63 22 -63 55v7c0 20 4 33 4 33h-2s-44 -107 -167 -107c-84 0 -168 49 -168 153zM131 149
c0 -45 33 -86 91 -86c86 0 139 88 139 164v21h-25c-46 0 -205 -2 -205 -99zM136 608v71h255v-71h-255z" />
    <glyph glyph-name="Abreve" unicode="&#x102;" horiz-adv-x="721" 
d="M11 0v78h68l225 628h113l225 -628h68v-78h-245v78h75l-55 157h-250l-55 -157h76v-78h-245zM260 315h200l-86 245c-10 29 -12 54 -12 54h-3s-3 -25 -12 -54zM360 751c-70 0 -133 40 -133 117v14h74v-13c0 -41 29 -59 59 -59c28 0 58 18 58 60v12h74v-14
c0 -77 -63 -117 -132 -117z" />
    <glyph glyph-name="breve" unicode="&#x2d8;" horiz-adv-x="499" 
d="M250 751c-70 0 -133 40 -133 117v14h74v-13c0 -41 29 -59 59 -59c28 0 58 18 58 60v12h74v-14c0 -77 -63 -117 -132 -117z" />
    <glyph glyph-name="abreve" unicode="&#x103;" 
d="M33 141c0 159 211 170 295 170h32v19c0 80 -46 108 -108 108c-80 0 -145 -49 -145 -49l-39 69s74 60 192 60c129 0 197 -67 197 -195v-226c0 -15 8 -22 22 -22h51v-75h-101c-45 0 -63 22 -63 55v7c0 20 4 33 4 33h-2s-44 -107 -167 -107c-84 0 -168 49 -168 153zM131 149
c0 -45 33 -86 91 -86c86 0 139 88 139 164v21h-25c-46 0 -205 -2 -205 -99zM263 575c-70 0 -133 40 -133 117v14h74v-13c0 -41 29 -59 59 -59c28 0 58 18 58 60v12h74v-14c0 -77 -63 -117 -132 -117z" />
    <glyph glyph-name="Aogonek" unicode="&#x104;" horiz-adv-x="721" 
d="M548 -119c0 50 33 93 67 119h-150v78h75l-55 157h-250l-55 -157h76v-78h-245v78h68l225 628h113l225 -628h68v-78h-5c-20 0 -81 -56 -81 -103c0 -36 44 -47 64 -49l-18 -68c-40 4 -122 25 -122 101zM260 315h200l-86 245c-10 29 -12 54 -12 54h-3s-3 -25 -12 -54z" />
    <glyph glyph-name="aogonek" unicode="&#x105;" 
d="M367 -119c0 50 34 93 68 119h-9c-40 0 -60 21 -60 55v7c0 20 4 33 4 33h-2s-44 -107 -167 -107c-84 0 -168 49 -168 153c0 159 211 170 295 170h32v19c0 80 -46 108 -108 108c-80 0 -145 -49 -145 -49l-39 69s74 60 192 60c129 0 197 -67 197 -195v-226
c0 -15 8 -22 22 -22h51v-75h-5c-20 0 -81 -56 -81 -103c0 -36 44 -47 63 -49l-18 -68c-39 4 -122 25 -122 101zM131 149c0 -45 33 -86 91 -86c86 0 139 88 139 164v21h-25c-46 0 -205 -2 -205 -99z" />
    <glyph glyph-name="Cacute" unicode="&#x106;" horiz-adv-x="744" 
d="M338 755l104 127h111l-124 -127h-91zM49 357c0 207 157 361 361 361c85 0 269 -31 269 -140v-86h-93v55c0 62 -107 85 -172 85c-151 0 -262 -111 -262 -271c0 -167 114 -286 268 -286c50 0 176 18 176 83v55h93v-86c0 -104 -177 -139 -275 -139c-212 0 -365 163 -365 369
z" />
    <glyph glyph-name="cacute" unicode="&#x107;" horiz-adv-x="553" 
d="M235 579l104 127h111l-124 -127h-91zM40 252c0 155 117 266 268 266c75 0 198 -28 198 -115v-62h-86v35c0 39 -64 58 -109 58c-102 0 -172 -72 -172 -180c0 -115 81 -182 178 -182c86 0 144 51 162 65l37 -71c-23 -21 -96 -78 -203 -78c-146 0 -273 101 -273 264z" />
    <glyph glyph-name="Ccircumflex" unicode="&#x108;" horiz-adv-x="744" 
d="M258 755l88 127h105l88 -127h-87l-53 80h-2l-52 -80h-87zM49 357c0 207 157 361 361 361c85 0 269 -31 269 -140v-86h-93v55c0 62 -107 85 -172 85c-151 0 -262 -111 -262 -271c0 -167 114 -286 268 -286c50 0 176 18 176 83v55h93v-86c0 -104 -177 -139 -275 -139
c-212 0 -365 163 -365 369z" />
    <glyph glyph-name="ccircumflex" unicode="&#x109;" horiz-adv-x="553" 
d="M155 579l88 127h105l88 -127h-87l-53 80h-2l-52 -80h-87zM40 252c0 155 117 266 268 266c75 0 198 -28 198 -115v-62h-86v35c0 39 -64 58 -109 58c-102 0 -172 -72 -172 -180c0 -115 81 -182 178 -182c86 0 144 51 162 65l37 -71c-23 -21 -96 -78 -203 -78
c-146 0 -273 101 -273 264z" />
    <glyph glyph-name="Cdotaccent" unicode="&#x10a;" horiz-adv-x="744" 
d="M49 357c0 207 157 361 361 361c85 0 269 -31 269 -140v-86h-93v55c0 62 -107 85 -172 85c-151 0 -262 -111 -262 -271c0 -167 114 -286 268 -286c50 0 176 18 176 83v55h93v-86c0 -104 -177 -139 -275 -139c-212 0 -365 163 -365 369zM353 784v98h91v-98h-91z" />
    <glyph glyph-name="dotaccent" unicode="&#x2d9;" horiz-adv-x="500" 
d="M204 784v98h91v-98h-91z" />
    <glyph glyph-name="cdotaccent" unicode="&#x10b;" horiz-adv-x="553" 
d="M40 252c0 155 117 266 268 266c75 0 198 -28 198 -115v-62h-86v35c0 39 -64 58 -109 58c-102 0 -172 -72 -172 -180c0 -115 81 -182 178 -182c86 0 144 51 162 65l37 -71c-23 -21 -96 -78 -203 -78c-146 0 -273 101 -273 264zM250 608v98h91v-98h-91z" />
    <glyph glyph-name="Ccaron" unicode="&#x10c;" horiz-adv-x="744" 
d="M346 755l-88 127h87l52 -81h2l53 81h87l-88 -127h-105zM49 357c0 207 157 361 361 361c85 0 269 -31 269 -140v-86h-93v55c0 62 -107 85 -172 85c-151 0 -262 -111 -262 -271c0 -167 114 -286 268 -286c50 0 176 18 176 83v55h93v-86c0 -104 -177 -139 -275 -139
c-212 0 -365 163 -365 369z" />
    <glyph glyph-name="caron" unicode="&#x2c7;" horiz-adv-x="499" 
d="M197 755l-88 127h87l52 -81h2l53 81h87l-88 -127h-105z" />
    <glyph glyph-name="ccaron" unicode="&#x10d;" horiz-adv-x="553" 
d="M243 579l-88 127h87l52 -81h2l53 81h87l-88 -127h-105zM40 252c0 155 117 266 268 266c75 0 198 -28 198 -115v-62h-86v35c0 39 -64 58 -109 58c-102 0 -172 -72 -172 -180c0 -115 81 -182 178 -182c86 0 144 51 162 65l37 -71c-23 -21 -96 -78 -203 -78
c-146 0 -273 101 -273 264z" />
    <glyph glyph-name="Dcaron" unicode="&#x10e;" horiz-adv-x="779" 
d="M312 755l-88 127h87l52 -81h2l53 81h87l-88 -127h-105zM53 0v78h88v551h-88v77h301c59 0 103 -3 150 -17c135 -42 223 -164 223 -336c0 -171 -85 -290 -223 -334c-46 -15 -93 -19 -149 -19h-302zM241 82h108c46 0 84 4 120 18c95 33 154 124 154 253
c0 130 -59 221 -153 255c-39 14 -75 16 -121 16h-108v-542z" />
    <glyph glyph-name="dcaron" unicode="&#x10f;" horiz-adv-x="629" 
d="M590 706h85c5 -15 7 -33 7 -49c0 -51 -31 -95 -76 -118l-42 34c23 22 38 48 38 78c0 17 -4 34 -12 55zM42 253c0 161 94 265 230 265c115 0 156 -85 156 -85h2s-3 16 -3 38v160h-84v75h181v-609c0 -15 8 -22 22 -22h51v-75h-101c-45 0 -63 22 -63 55v7c0 17 3 27 3 27h-2
s-41 -101 -171 -101c-136 0 -221 108 -221 265zM141 253c0 -110 59 -181 143 -181c75 0 146 54 146 180c0 93 -47 181 -143 181c-81 0 -146 -65 -146 -180z" />
    <glyph glyph-name="commaaccent" horiz-adv-x="335" 
d="M128 -58h85c5 -15 7 -33 7 -49c0 -51 -31 -95 -76 -118l-42 34c23 22 38 48 38 78c0 17 -4 34 -12 55z" />
    <glyph glyph-name="Dcroat" unicode="&#x110;" horiz-adv-x="787" 
d="M53 0v78h88v234h-75v82h75v235h-88v77h324c216 0 358 -129 358 -352c0 -224 -142 -354 -358 -354h-324zM241 82h129c157 0 261 95 261 272c0 175 -105 270 -261 270h-129v-230h155v-82h-155v-230z" />
    <glyph glyph-name="dcroat" unicode="&#x111;" horiz-adv-x="629" 
d="M42 253c0 161 94 265 230 265c115 0 156 -87 156 -87h2s-3 17 -3 38v96h-150v63h150v78h97v-78h76v-63h-76v-468c0 -15 8 -22 22 -22h51v-75h-101c-45 0 -63 22 -63 55v7c0 17 3 27 3 27h-2s-41 -101 -171 -101c-136 0 -221 108 -221 265zM141 253
c0 -110 59 -181 143 -181c75 0 146 54 146 180c0 93 -47 181 -143 181c-81 0 -146 -65 -146 -180z" />
    <glyph glyph-name="Emacron" unicode="&#x112;" horiz-adv-x="632" 
d="M53 0v78h88v551h-88v77h511v-164h-87v82h-236v-227h250v-82h-250v-233h253v85h87v-167h-528zM199 784v71h255v-71h-255z" />
    <glyph glyph-name="emacron" unicode="&#x113;" 
d="M41 253c0 161 109 265 253 265s219 -106 219 -237c0 -13 -3 -37 -3 -37h-370c6 -112 85 -172 175 -172c88 0 151 57 151 57l40 -71s-76 -70 -197 -70c-159 0 -268 115 -268 265zM144 306h269c-3 89 -57 135 -121 135c-74 0 -134 -50 -148 -135zM168 608v71h255v-71h-255z
" />
    <glyph glyph-name="Ebreve" unicode="&#x114;" horiz-adv-x="632" 
d="M53 0v78h88v551h-88v77h511v-164h-87v82h-236v-227h250v-82h-250v-233h253v85h87v-167h-528zM326 751c-70 0 -133 40 -133 117v14h74v-13c0 -41 29 -59 59 -59c28 0 58 18 58 60v12h74v-14c0 -77 -63 -117 -132 -117z" />
    <glyph glyph-name="ebreve" unicode="&#x115;" 
d="M41 253c0 161 109 265 253 265s219 -106 219 -237c0 -13 -3 -37 -3 -37h-370c6 -112 85 -172 175 -172c88 0 151 57 151 57l40 -71s-76 -70 -197 -70c-159 0 -268 115 -268 265zM144 306h269c-3 89 -57 135 -121 135c-74 0 -134 -50 -148 -135zM295 575
c-70 0 -133 40 -133 117v14h74v-13c0 -41 29 -59 59 -59c28 0 58 18 58 60v12h74v-14c0 -77 -63 -117 -132 -117z" />
    <glyph glyph-name="Edotaccent" unicode="&#x116;" horiz-adv-x="632" 
d="M53 0v78h88v551h-88v77h511v-164h-87v82h-236v-227h250v-82h-250v-233h253v85h87v-167h-528zM280 784v98h91v-98h-91z" />
    <glyph glyph-name="edotaccent" unicode="&#x117;" 
d="M41 253c0 161 109 265 253 265s219 -106 219 -237c0 -13 -3 -37 -3 -37h-370c6 -112 85 -172 175 -172c88 0 151 57 151 57l40 -71s-76 -70 -197 -70c-159 0 -268 115 -268 265zM144 306h269c-3 89 -57 135 -121 135c-74 0 -134 -50 -148 -135zM249 608v98h91v-98h-91z
" />
    <glyph glyph-name="Eogonek" unicode="&#x118;" horiz-adv-x="632" 
d="M53 0v78h88v551h-88v77h511v-164h-87v82h-236v-227h250v-82h-250v-233h253v85h87v-167h-6c-21 0 -82 -56 -82 -103c0 -36 44 -47 63 -49l-18 -68c-39 4 -122 25 -122 101c0 50 34 93 68 119h-431z" />
    <glyph glyph-name="eogonek" unicode="&#x119;" 
d="M41 253c0 161 109 265 253 265s219 -106 219 -237c0 -13 -3 -37 -3 -37h-370c6 -112 85 -172 175 -172c88 0 151 57 151 57l40 -71s-35 -27 -84 -52c-14 -7 -79 -52 -79 -109c0 -36 43 -47 63 -49l-18 -68c-39 4 -122 25 -122 101c0 42 25 81 55 108
c-168 -8 -280 115 -280 264zM144 306h269c-3 89 -57 135 -121 135c-74 0 -134 -50 -148 -135z" />
    <glyph glyph-name="Ecaron" unicode="&#x11a;" horiz-adv-x="632" 
d="M274 755l-88 127h87l52 -81h2l53 81h87l-88 -127h-105zM53 0v78h88v551h-88v77h511v-164h-87v82h-236v-227h250v-82h-250v-233h253v85h87v-167h-528z" />
    <glyph glyph-name="ecaron" unicode="&#x11b;" 
d="M242 579l-88 127h87l52 -81h2l53 81h87l-88 -127h-105zM41 253c0 161 109 265 253 265s219 -106 219 -237c0 -13 -3 -37 -3 -37h-370c6 -112 85 -172 175 -172c88 0 151 57 151 57l40 -71s-76 -70 -197 -70c-159 0 -268 115 -268 265zM144 306h269
c-3 89 -57 135 -121 135c-74 0 -134 -50 -148 -135z" />
    <glyph glyph-name="Gcircumflex" unicode="&#x11c;" horiz-adv-x="766" 
d="M265 755l88 127h105l88 -127h-87l-53 80h-2l-52 -80h-87zM49 355c0 209 150 363 370 363c124 0 271 -50 271 -139v-87h-92v52c0 59 -93 88 -176 88c-165 0 -269 -112 -269 -274c0 -163 106 -283 272 -283c63 0 189 19 189 88v93h-138v78h230v-198
c0 -109 -182 -148 -288 -148c-217 0 -369 158 -369 367z" />
    <glyph glyph-name="gcircumflex" unicode="&#x11d;" horiz-adv-x="626" 
d="M159 579l88 127h105l88 -127h-87l-53 80h-2l-52 -80h-87zM121 -94c0 0 63 -34 139 -34c88 0 160 40 160 144v40c0 16 3 32 3 32h-2c-30 -50 -78 -82 -152 -82c-140 0 -226 113 -226 259c0 145 81 253 222 253c66 0 136 -25 164 -83h2s-2 7 -2 20c0 32 16 51 58 51h108
v-75h-56c-13 0 -22 -7 -22 -20v-390c0 -167 -127 -231 -255 -231c-61 0 -123 17 -173 42zM288 90c70 0 134 42 134 174s-64 170 -143 170c-87 0 -137 -64 -137 -167c0 -105 55 -177 146 -177z" />
    <glyph glyph-name="Gbreve" unicode="&#x11e;" horiz-adv-x="766" 
d="M49 355c0 209 150 363 370 363c124 0 271 -50 271 -139v-87h-92v52c0 59 -93 88 -176 88c-165 0 -269 -112 -269 -274c0 -163 106 -283 272 -283c63 0 189 19 189 88v93h-138v78h230v-198c0 -109 -182 -148 -288 -148c-217 0 -369 158 -369 367zM406 751
c-70 0 -133 40 -133 117v14h74v-13c0 -41 29 -59 59 -59c28 0 58 18 58 60v12h74v-14c0 -77 -63 -117 -132 -117z" />
    <glyph glyph-name="gbreve" unicode="&#x11f;" horiz-adv-x="626" 
d="M121 -94c0 0 63 -34 139 -34c88 0 160 40 160 144v40c0 16 3 32 3 32h-2c-30 -50 -78 -82 -152 -82c-140 0 -226 113 -226 259c0 145 81 253 222 253c66 0 136 -25 164 -83h2s-2 7 -2 20c0 32 16 51 58 51h108v-75h-56c-13 0 -22 -7 -22 -20v-390
c0 -167 -127 -231 -255 -231c-61 0 -123 17 -173 42zM288 90c70 0 134 42 134 174s-64 170 -143 170c-87 0 -137 -64 -137 -167c0 -105 55 -177 146 -177zM300 575c-70 0 -133 40 -133 117v14h74v-13c0 -41 29 -59 59 -59c28 0 58 18 58 60v12h74v-14
c0 -77 -63 -117 -132 -117z" />
    <glyph glyph-name="Gdotaccent" unicode="&#x120;" horiz-adv-x="766" 
d="M49 355c0 209 150 363 370 363c124 0 271 -50 271 -139v-87h-92v52c0 59 -93 88 -176 88c-165 0 -269 -112 -269 -274c0 -163 106 -283 272 -283c63 0 189 19 189 88v93h-138v78h230v-198c0 -109 -182 -148 -288 -148c-217 0 -369 158 -369 367zM360 784v98h91v-98h-91z
" />
    <glyph glyph-name="gdotaccent" unicode="&#x121;" horiz-adv-x="626" 
d="M121 -94c0 0 63 -34 139 -34c88 0 160 40 160 144v40c0 16 3 32 3 32h-2c-30 -50 -78 -82 -152 -82c-140 0 -226 113 -226 259c0 145 81 253 222 253c66 0 136 -25 164 -83h2s-2 7 -2 20c0 32 16 51 58 51h108v-75h-56c-13 0 -22 -7 -22 -20v-390
c0 -167 -127 -231 -255 -231c-61 0 -123 17 -173 42zM288 90c70 0 134 42 134 174s-64 170 -143 170c-87 0 -137 -64 -137 -167c0 -105 55 -177 146 -177zM254 608v98h91v-98h-91z" />
    <glyph glyph-name="Gcommaaccent" unicode="&#x122;" horiz-adv-x="766" 
d="M361 -58h85c5 -15 7 -33 7 -49c0 -51 -31 -95 -76 -118l-42 34c23 22 38 48 38 78c0 17 -4 34 -12 55zM49 355c0 209 150 363 370 363c124 0 271 -50 271 -139v-87h-92v52c0 59 -93 88 -176 88c-165 0 -269 -112 -269 -274c0 -163 106 -283 272 -283c63 0 189 19 189 88
v93h-138v78h230v-198c0 -109 -182 -148 -288 -148c-217 0 -369 158 -369 367z" />
    <glyph glyph-name="gcommaaccent" unicode="&#x123;" horiz-adv-x="626" 
d="M332 575h-85c-5 15 -7 33 -7 49c0 51 31 95 76 118l42 -34c-23 -22 -38 -48 -38 -78c0 -17 4 -34 12 -55zM121 -94c0 0 63 -34 139 -34c88 0 160 40 160 144v40c0 16 3 32 3 32h-2c-30 -50 -78 -82 -152 -82c-140 0 -226 113 -226 259c0 145 81 253 222 253
c66 0 136 -25 164 -83h2s-2 7 -2 20c0 32 16 51 58 51h108v-75h-56c-13 0 -22 -7 -22 -20v-390c0 -167 -127 -231 -255 -231c-61 0 -123 17 -173 42zM288 90c70 0 134 42 134 174s-64 170 -143 170c-87 0 -137 -64 -137 -167c0 -105 55 -177 146 -177z" />
    <glyph glyph-name="Hcircumflex" unicode="&#x124;" horiz-adv-x="848" 
d="M284 755l88 127h105l88 -127h-87l-53 80h-2l-52 -80h-87zM53 0v78h88v551h-88v77h277v-77h-89v-235h366v235h-89v77h277v-77h-88v-551h88v-78h-277v78h89v234h-366v-234h89v-78h-277z" />
    <glyph glyph-name="hcircumflex" unicode="&#x125;" horiz-adv-x="674" 
d="M19 755l88 127h105l88 -127h-87l-53 80h-2l-52 -80h-87zM32 0v75h80v556h-85v75h181v-262c0 -24 -3 -42 -3 -42h2c22 49 88 116 189 116c119 0 174 -65 174 -194v-249h79v-75h-176v302c0 71 -15 127 -96 127c-99 0 -169 -84 -169 -192v-162h80v-75h-256z" />
    <glyph glyph-name="Hbar" unicode="&#x126;" horiz-adv-x="848" 
d="M59 482v57h82v90h-88v77h277v-77h-89v-90h366v90h-89v77h277v-77h-88v-90h83v-57h-83v-404h88v-78h-277v78h89v230h-366v-230h89v-78h-277v78h88v404h-82zM241 377h366v105h-366v-105z" />
    <glyph glyph-name="hbar" unicode="&#x127;" horiz-adv-x="674" 
d="M32 0v75h80v490h-72v62h72v79h96v-79h154v-62h-154v-121c0 -24 -3 -42 -3 -42h2c22 49 88 116 189 116c119 0 174 -65 174 -194v-249h79v-75h-176v302c0 71 -15 127 -96 127c-101 0 -169 -89 -169 -190v-164h74v-75h-250z" />
    <glyph glyph-name="Itilde" unicode="&#x128;" horiz-adv-x="382" 
d="M53 0v78h88v551h-88v77h277v-77h-89v-551h89v-78h-277zM21 756c0 84 34 127 102 127c72 0 86 -67 127 -67c32 0 40 35 40 64h72c0 -83 -34 -127 -102 -127c-72 0 -86 67 -127 67c-32 0 -40 -34 -40 -64h-72z" />
    <glyph glyph-name="itilde" unicode="&#x129;" horiz-adv-x="323" 
d="M47 0v75h74v356h-76v75h173v-431h73v-75h-244zM-1 580c0 84 34 127 102 127c72 0 86 -67 127 -67c32 0 40 35 40 64h72c0 -83 -34 -127 -102 -127c-72 0 -86 67 -127 67c-32 0 -40 -34 -40 -64h-72z" />
    <glyph glyph-name="Imacron" unicode="&#x12a;" horiz-adv-x="382" 
d="M53 0v78h88v551h-88v77h277v-77h-89v-551h89v-78h-277zM64 784v71h255v-71h-255z" />
    <glyph glyph-name="imacron" unicode="&#x12b;" horiz-adv-x="323" 
d="M47 0v75h74v356h-76v75h173v-431h73v-75h-244zM42 608v71h255v-71h-255z" />
    <glyph glyph-name="Ibreve" unicode="&#x12c;" horiz-adv-x="382" 
d="M53 0v78h88v551h-88v77h277v-77h-89v-551h89v-78h-277zM192 751c-70 0 -133 40 -133 117v14h74v-13c0 -41 29 -59 59 -59c28 0 58 18 58 60v12h74v-14c0 -77 -63 -117 -132 -117z" />
    <glyph glyph-name="ibreve" unicode="&#x12d;" horiz-adv-x="323" 
d="M47 0v75h74v356h-76v75h173v-431h73v-75h-244zM169 575c-70 0 -133 40 -133 117v14h74v-13c0 -41 29 -59 59 -59c28 0 58 18 58 60v12h74v-14c0 -77 -63 -117 -132 -117z" />
    <glyph glyph-name="Iogonek" unicode="&#x12e;" horiz-adv-x="382" 
d="M53 0v78h88v551h-88v77h277v-77h-89v-551h89v-78h-8c-22 -1 -81 -57 -81 -103c0 -36 44 -47 64 -49l-18 -68c-40 4 -122 25 -122 101c0 50 33 93 67 119h-179z" />
    <glyph glyph-name="iogonek" unicode="&#x12f;" horiz-adv-x="336" 
d="M48 0v75h79v356h-84v75h181v-431h80v-75h-7c-20 0 -81 -56 -81 -103c0 -36 44 -47 64 -49l-19 -68c-39 4 -122 25 -122 101c0 50 34 93 68 119h-159zM125 607v99h102v-99h-102z" />
    <glyph glyph-name="Idotaccent" unicode="&#x130;" horiz-adv-x="382" 
d="M53 0v78h88v551h-88v77h277v-77h-89v-551h89v-78h-277zM146 784v98h91v-98h-91z" />
    <glyph glyph-name="IJ" unicode="&#x132;" horiz-adv-x="734" 
d="M53 0v78h88v551h-88v77h277v-77h-89v-551h76v-78h-264zM372 80c58 -2 138 20 138 145v404h-93v77h278v-77h-85v-396c0 -198 -125 -241 -238 -236v83z" />
    <glyph glyph-name="ij" unicode="&#x133;" horiz-adv-x="606" 
d="M125 607v99h102v-99h-102zM48 0v75h79v356h-84v75h181v-431h80v-75h-256zM422 607v99h102v-99h-102zM294 -125c0 0 9 -1 22 -1c37 0 108 13 108 114v443h-85v75h182v-521c0 -169 -131 -191 -194 -191c-20 0 -33 2 -33 2v79z" />
    <glyph glyph-name="Jcircumflex" unicode="&#x134;" 
d="M245 755l88 127h105l88 -127h-87l-53 80h-2l-52 -80h-87zM24 197v41h97v-31c0 -69 31 -130 109 -130c56 0 107 34 107 130v422h-102v77h281v-77h-79v-428c0 -151 -106 -213 -208 -213c-101 0 -205 58 -205 209z" />
    <glyph glyph-name="jcircumflex" unicode="&#x135;" horiz-adv-x="296" 
d="M-4 579l88 127h105l88 -127h-87l-53 81h-2l-52 -81h-87zM-16 -125c0 0 9 -1 22 -1c37 0 108 13 108 114v443h-85v75h182v-521c0 -169 -131 -191 -194 -191c-20 0 -33 2 -33 2v79z" />
    <glyph glyph-name="Kcommaaccent" unicode="&#x136;" horiz-adv-x="692" 
d="M317 -58h85c5 -15 7 -33 7 -49c0 -51 -31 -95 -76 -118l-42 34c23 22 38 48 38 78c0 17 -4 34 -12 55zM53 0v78h88v551h-88v77h265v-77h-77v-222h91l154 222h-65v77h239v-77h-68l-183 -255v-2s20 -9 40 -47l127 -221c11 -19 25 -26 50 -26h33v-78h-71
c-59 0 -76 14 -98 53l-136 244c-12 20 -26 28 -55 28h-58v-247h87v-78h-275z" />
    <glyph glyph-name="kcommaaccent" unicode="&#x137;" horiz-adv-x="587" 
d="M273 -58h85c5 -15 7 -33 7 -49c0 -51 -31 -95 -76 -118l-42 34c23 22 38 48 38 78c0 17 -4 34 -12 55zM32 0v75h80v556h-85v75h181v-394h74l101 119h-66v75h230v-75h-67l-125 -146v-2c1 0 17 -7 37 -41l86 -147c10 -16 18 -20 44 -20h32v-75h-76c-46 0 -61 8 -83 47
l-100 171c-11 18 -25 20 -47 20h-40v-163h68v-75h-244z" />
    <glyph glyph-name="kgreenlandic" unicode="&#x138;" horiz-adv-x="602" 
d="M48 0v75h79v356h-84v75h181v-191h76l98 116h-65v75h228v-75h-66l-124 -146v-2c1 0 18 -10 38 -43l85 -145c10 -16 18 -20 44 -20h32v-75h-76c-47 0 -61 8 -84 47l-99 171c-11 18 -26 20 -47 20h-40v-163h68v-75h-244z" />
    <glyph glyph-name="Lacute" unicode="&#x139;" horiz-adv-x="604" 
d="M130 755l104 127h111l-124 -127h-91zM54 0v78h88v546h-88v82h277v-82h-89v-542h246v114h88v-196h-522z" />
    <glyph glyph-name="lacute" unicode="&#x13a;" horiz-adv-x="293" 
d="M74 755l104 127h111l-124 -127h-91zM85 144v487h-84v75h181v-556c0 -43 10 -72 54 -72c16 0 27 1 27 1l-1 -80s-20 -2 -43 -2c-72 0 -134 29 -134 147z" />
    <glyph glyph-name="Lcommaaccent" unicode="&#x13b;" horiz-adv-x="604" 
d="M298 -58h85c5 -15 7 -33 7 -49c0 -51 -31 -95 -76 -118l-42 34c23 22 38 48 38 78c0 17 -4 34 -12 55zM54 0v78h88v546h-88v82h277v-82h-89v-542h246v114h88v-196h-522z" />
    <glyph glyph-name="lcommaaccent" unicode="&#x13c;" horiz-adv-x="293" 
d="M126 -58h85c5 -15 7 -33 7 -49c0 -51 -31 -95 -76 -118l-42 34c23 22 38 48 38 78c0 17 -4 34 -12 55zM85 144v487h-84v75h181v-556c0 -43 10 -72 54 -72c16 0 27 1 27 1l-1 -80s-20 -2 -43 -2c-72 0 -134 29 -134 147z" />
    <glyph glyph-name="Lcaron" unicode="&#x13d;" horiz-adv-x="604" 
d="M298 -58h85c5 -15 7 -33 7 -49c0 -51 -31 -95 -76 -118l-42 34c23 22 38 48 38 78c0 17 -4 34 -12 55zM54 0v78h88v546h-88v82h277v-82h-89v-542h246v114h88v-196h-522z" />
    <glyph glyph-name="lcaron" unicode="&#x13e;" horiz-adv-x="293" 
d="M254 705h85c5 -15 7 -33 7 -49c0 -51 -31 -95 -76 -118l-42 34c23 22 38 48 38 78c0 17 -4 34 -12 55zM85 144v487h-84v75h181v-556c0 -43 10 -72 54 -72c16 0 27 1 27 1l-1 -80s-20 -2 -43 -2c-72 0 -134 29 -134 147z" />
    <glyph glyph-name="Ldot" unicode="&#x13f;" horiz-adv-x="604" 
d="M54 0v78h88v546h-88v82h277v-82h-89v-542h246v114h88v-196h-522zM358 326v106h102v-106h-102z" />
    <glyph glyph-name="ldot" unicode="&#x140;" horiz-adv-x="370" 
d="M85 144v487h-84v75h181v-556c0 -43 10 -72 54 -72c16 0 27 1 27 1l-1 -80s-20 -2 -43 -2c-72 0 -134 29 -134 147zM266 326v106h102v-106h-102z" />
    <glyph glyph-name="Lslash" unicode="&#x141;" horiz-adv-x="603" 
d="M53 0v78h88v198l-85 -44v88l85 45v259h-88v82h277v-82h-89v-206l203 106v-89l-203 -106v-247h250v114h84v-196h-522z" />
    <glyph glyph-name="lslash" unicode="&#x142;" horiz-adv-x="293" 
d="M4 282v89l81 45v215h-84v75h181v-236l91 52v-89l-91 -52v-230c0 -43 10 -72 55 -72c15 0 26 1 26 1l-1 -81s-20 -2 -42 -2c-73 0 -135 29 -135 147v184z" />
    <glyph glyph-name="Nacute" unicode="&#x143;" horiz-adv-x="838" 
d="M364 755l104 127h111l-124 -127h-91zM53 0v78h88v551h-88v77h187l347 -506c12 -20 24 -51 24 -51h3s-5 35 -5 57v423h-90v77h279v-77h-89v-629h-98l-347 506c-13 20 -24 51 -24 51h-3s5 -35 4 -57v-422h91v-78h-279z" />
    <glyph glyph-name="nacute" unicode="&#x144;" horiz-adv-x="689" 
d="M304 579l104 127h111l-124 -127h-91zM48 0v75h79v334c0 15 -8 22 -22 22h-62v75h114c44 0 64 -19 64 -56v-26c0 -16 -3 -29 -3 -29h2c10 27 69 123 197 123c116 0 168 -65 168 -194v-249h80v-75h-177v302c0 71 -14 127 -95 127c-102 0 -169 -93 -169 -194v-160h80v-75
h-256z" />
    <glyph glyph-name="Ncommaaccent" unicode="&#x145;" horiz-adv-x="838" 
d="M381 -58h85c5 -15 7 -33 7 -49c0 -51 -31 -95 -76 -118l-42 34c23 22 38 48 38 78c0 17 -4 34 -12 55zM53 0v78h88v551h-88v77h187l347 -506c12 -20 24 -51 24 -51h3s-5 35 -5 57v423h-90v77h279v-77h-89v-629h-98l-347 506c-13 20 -24 51 -24 51h-3s5 -35 4 -57v-422h91
v-78h-279z" />
    <glyph glyph-name="ncommaaccent" unicode="&#x146;" horiz-adv-x="689" 
d="M311 -58h85c5 -15 7 -33 7 -49c0 -51 -31 -95 -76 -118l-42 34c23 22 38 48 38 78c0 17 -4 34 -12 55zM48 0v75h79v334c0 15 -8 22 -22 22h-62v75h114c44 0 64 -19 64 -56v-26c0 -16 -3 -29 -3 -29h2c10 27 69 123 197 123c116 0 168 -65 168 -194v-249h80v-75h-177v302
c0 71 -14 127 -95 127c-102 0 -169 -93 -169 -194v-160h80v-75h-256z" />
    <glyph glyph-name="Ncaron" unicode="&#x147;" horiz-adv-x="838" 
d="M372 755l-88 127h87l52 -81h2l53 81h87l-88 -127h-105zM53 0v78h88v551h-88v77h187l347 -506c12 -20 24 -51 24 -51h3s-5 35 -5 57v423h-90v77h279v-77h-89v-629h-98l-347 506c-13 20 -24 51 -24 51h-3s5 -35 4 -57v-422h91v-78h-279z" />
    <glyph glyph-name="ncaron" unicode="&#x148;" horiz-adv-x="689" 
d="M312 579l-88 127h87l52 -81h2l53 81h87l-88 -127h-105zM48 0v75h79v334c0 15 -8 22 -22 22h-62v75h114c44 0 64 -19 64 -56v-26c0 -16 -3 -29 -3 -29h2c10 27 69 123 197 123c116 0 168 -65 168 -194v-249h80v-75h-177v302c0 71 -14 127 -95 127
c-102 0 -169 -93 -169 -194v-160h80v-75h-256z" />
    <glyph glyph-name="napostrophe" unicode="&#x149;" horiz-adv-x="689" 
d="M52 721h85c5 -15 7 -33 7 -49c0 -51 -31 -95 -76 -118l-42 34c23 22 38 48 38 78c0 17 -4 34 -12 55zM48 0v75h79v334c0 15 -8 22 -22 22h-62v75h114c44 0 64 -19 64 -56v-26c0 -16 -3 -29 -3 -29h2c10 27 69 123 197 123c116 0 168 -65 168 -194v-249h80v-75h-177v302
c0 71 -14 127 -95 127c-102 0 -169 -93 -169 -194v-160h80v-75h-256z" />
    <glyph glyph-name="Eng" unicode="&#x14a;" horiz-adv-x="838" 
d="M53 0v78h88v551h-88v77h189l345 -506c12 -20 24 -51 24 -51h3s-5 35 -5 57v423h-90v77h279v-77h-89v-602c0 -182 -108 -232 -234 -232v86c68 0 134 33 136 117l-347 508c-13 20 -24 51 -24 51h-3s5 -35 4 -57v-422h91v-78h-279z" />
    <glyph glyph-name="eng" unicode="&#x14b;" horiz-adv-x="660" 
d="M48 0v75h79v334c0 15 -8 22 -22 22h-62v75h114c44 0 64 -19 64 -56v-26c0 -16 -3 -29 -3 -29h2c10 27 69 123 197 123c116 0 168 -65 168 -194v-344c0 -169 -130 -189 -193 -189c-21 0 -34 2 -34 2v81s9 -1 22 -1c37 0 108 12 108 111v318c0 71 -14 127 -95 127
c-102 0 -169 -95 -169 -196v-158h80v-75h-256z" />
    <glyph glyph-name="Omacron" unicode="&#x14c;" horiz-adv-x="822" 
d="M284 784v71h255v-71h-255zM48 358c0 203 158 360 363 360c204 0 363 -157 363 -360c0 -208 -159 -370 -363 -370c-205 0 -363 162 -363 370zM151 358c0 -159 116 -281 260 -281c143 0 259 122 259 281c0 154 -116 272 -259 272c-144 0 -260 -118 -260 -272z" />
    <glyph glyph-name="omacron" unicode="&#x14d;" horiz-adv-x="626" 
d="M186 608v71h255v-71h-255zM40 254c0 153 122 264 273 264s273 -111 273 -264c0 -154 -122 -266 -273 -266s-273 112 -273 266zM139 254c0 -106 78 -182 174 -182c95 0 174 76 174 182c0 105 -79 180 -174 180c-96 0 -174 -75 -174 -180z" />
    <glyph glyph-name="Obreve" unicode="&#x14e;" horiz-adv-x="822" 
d="M48 358c0 203 158 360 363 360c204 0 363 -157 363 -360c0 -208 -159 -370 -363 -370c-205 0 -363 162 -363 370zM151 358c0 -159 116 -281 260 -281c143 0 259 122 259 281c0 154 -116 272 -259 272c-144 0 -260 -118 -260 -272zM411 751c-70 0 -133 40 -133 117v14h74
v-13c0 -41 29 -59 59 -59c28 0 58 18 58 60v12h74v-14c0 -77 -63 -117 -132 -117z" />
    <glyph glyph-name="obreve" unicode="&#x14f;" horiz-adv-x="626" 
d="M40 254c0 153 122 264 273 264s273 -111 273 -264c0 -154 -122 -266 -273 -266s-273 112 -273 266zM139 254c0 -106 78 -182 174 -182c95 0 174 76 174 182c0 105 -79 180 -174 180c-96 0 -174 -75 -174 -180zM313 575c-70 0 -133 40 -133 117v14h74v-13
c0 -41 29 -59 59 -59c28 0 58 18 58 60v12h74v-14c0 -77 -63 -117 -132 -117z" />
    <glyph glyph-name="Ohungarumlaut" unicode="&#x150;" horiz-adv-x="822" 
d="M432 755l73 127h103l-95 -127h-81zM278 755l68 127h89l-70 -127h-87zM48 358c0 203 158 360 363 360c204 0 363 -157 363 -360c0 -208 -159 -370 -363 -370c-205 0 -363 162 -363 370zM151 358c0 -159 116 -281 260 -281c143 0 259 122 259 281c0 154 -116 272 -259 272
c-144 0 -260 -118 -260 -272z" />
    <glyph glyph-name="hungarumlaut" unicode="&#x2dd;" horiz-adv-x="499" 
d="M239 755l73 127h103l-95 -127h-81zM85 755l68 127h89l-70 -127h-87z" />
    <glyph glyph-name="ohungarumlaut" unicode="&#x151;" horiz-adv-x="626" 
d="M334 579l73 127h103l-95 -127h-81zM180 579l68 127h89l-70 -127h-87zM40 254c0 153 122 264 273 264s273 -111 273 -264c0 -154 -122 -266 -273 -266s-273 112 -273 266zM139 254c0 -106 78 -182 174 -182c95 0 174 76 174 182c0 105 -79 180 -174 180
c-96 0 -174 -75 -174 -180z" />
    <glyph glyph-name="OE" unicode="&#x152;" horiz-adv-x="974" 
d="M49 354c0 203 157 361 366 361c48 0 87 -9 122 -9h369v-164h-83v82h-237v-228h247v-81h-247v-233h254v83h83v-165h-385c-35 0 -75 -9 -123 -9c-209 0 -366 159 -366 363zM151 354c0 -157 108 -279 264 -279c40 0 71 8 71 8v541s-31 7 -71 7c-156 0 -264 -122 -264 -277z
" />
    <glyph glyph-name="oe" unicode="&#x153;" horiz-adv-x="1000" 
d="M40 252c0 160 122 266 269 266c101 0 176 -47 220 -120h2c40 75 111 120 208 120c143 0 219 -106 219 -237c0 -13 -3 -38 -3 -38h-369c8 -113 86 -173 174 -173c87 0 150 58 150 58l40 -68s-76 -72 -196 -72c-105 0 -180 49 -221 123h-2c-44 -75 -119 -123 -221 -123
c-148 0 -270 104 -270 264zM589 306h270c-3 86 -56 135 -121 135c-75 0 -135 -50 -149 -135zM139 252c0 -110 79 -180 173 -180s174 70 174 183c0 109 -81 179 -174 179c-94 0 -173 -72 -173 -182z" />
    <glyph glyph-name="Racute" unicode="&#x154;" horiz-adv-x="702" 
d="M275 755l104 127h111l-124 -127h-91zM53 0v78h88v551h-88v77h306c50 0 91 -2 130 -15c74 -25 123 -87 123 -183c0 -102 -56 -175 -146 -198v-2s18 -10 30 -33l100 -174c11 -19 24 -23 49 -23h21v-78h-60c-60 0 -74 11 -98 53l-109 193c-18 30 -31 39 -74 39h-84v-207h87
v-78h-275zM241 367h142c77 0 128 50 128 133c0 55 -22 93 -66 111c-23 9 -53 13 -87 13h-117v-257z" />
    <glyph glyph-name="racute" unicode="&#x155;" horiz-adv-x="423" 
d="M184 579l104 127h111l-124 -127h-91zM50 0v75h76v334c0 15 -8 22 -22 22h-63v75h114c44 0 65 -18 65 -59v-32c0 -20 -2 -35 -2 -35h2c23 74 82 132 160 132c13 0 25 -2 25 -2v-96s-12 3 -28 3c-108 0 -154 -109 -154 -208v-134h75v-75h-248z" />
    <glyph glyph-name="Rcommaaccent" unicode="&#x156;" horiz-adv-x="702" 
d="M332 -58h85c5 -15 7 -33 7 -49c0 -51 -31 -95 -76 -118l-42 34c23 22 38 48 38 78c0 17 -4 34 -12 55zM53 0v78h88v551h-88v77h306c50 0 91 -2 130 -15c74 -25 123 -87 123 -183c0 -102 -56 -175 -146 -198v-2s18 -10 30 -33l100 -174c11 -19 24 -23 49 -23h21v-78h-60
c-60 0 -74 11 -98 53l-109 193c-18 30 -31 39 -74 39h-84v-207h87v-78h-275zM241 367h142c77 0 128 50 128 133c0 55 -22 93 -66 111c-23 9 -53 13 -87 13h-117v-257z" />
    <glyph glyph-name="rcommaaccent" unicode="&#x157;" horiz-adv-x="423" 
d="M132 -58h85c5 -15 7 -33 7 -49c0 -51 -31 -95 -76 -118l-42 34c23 22 38 48 38 78c0 17 -4 34 -12 55zM50 0v75h76v334c0 15 -8 22 -22 22h-63v75h114c44 0 65 -18 65 -59v-32c0 -20 -2 -35 -2 -35h2c23 74 82 132 160 132c13 0 25 -2 25 -2v-96s-12 3 -28 3
c-108 0 -154 -109 -154 -208v-134h75v-75h-248z" />
    <glyph glyph-name="Rcaron" unicode="&#x158;" horiz-adv-x="702" 
d="M283 755l-88 127h87l52 -81h2l53 81h87l-88 -127h-105zM53 0v78h88v551h-88v77h306c50 0 91 -2 130 -15c74 -25 123 -87 123 -183c0 -102 -56 -175 -146 -198v-2s18 -10 30 -33l100 -174c11 -19 24 -23 49 -23h21v-78h-60c-60 0 -74 11 -98 53l-109 193
c-18 30 -31 39 -74 39h-84v-207h87v-78h-275zM241 367h142c77 0 128 50 128 133c0 55 -22 93 -66 111c-23 9 -53 13 -87 13h-117v-257z" />
    <glyph glyph-name="rcaron" unicode="&#x159;" horiz-adv-x="423" 
d="M192 579l-88 127h87l52 -81h2l53 81h87l-88 -127h-105zM50 0v75h76v334c0 15 -8 22 -22 22h-63v75h114c44 0 65 -18 65 -59v-32c0 -20 -2 -35 -2 -35h2c23 74 82 132 160 132c13 0 25 -2 25 -2v-96s-12 3 -28 3c-108 0 -154 -109 -154 -208v-134h75v-75h-248z" />
    <glyph glyph-name="Sacute" unicode="&#x15a;" horiz-adv-x="578" 
d="M226 755l104 127h111l-124 -127h-91zM53 212h92v-52c0 -52 67 -83 141 -83c81 0 140 38 140 108c0 82 -83 109 -170 143c-93 35 -188 75 -188 200c0 133 107 190 226 190c106 0 214 -40 214 -117v-83h-93v49c0 41 -63 63 -121 63c-69 0 -124 -32 -124 -97
c0 -75 71 -100 150 -130c104 -39 207 -79 207 -210c0 -135 -110 -205 -241 -205c-110 0 -233 49 -233 150v74z" />
    <glyph glyph-name="sacute" unicode="&#x15b;" horiz-adv-x="481" 
d="M185 579l104 127h111l-124 -127h-91zM40 109v54h85v-33c0 -43 60 -63 116 -63c57 0 102 23 102 65c0 51 -56 67 -126 92c-75 28 -158 62 -158 154c0 100 99 140 187 140c71 0 175 -28 175 -102v-61h-85v33c0 31 -40 52 -89 52c-48 0 -90 -20 -90 -61
c0 -48 56 -68 117 -89c78 -26 167 -59 167 -153c0 -96 -88 -149 -203 -149c-92 0 -198 41 -198 121z" />
    <glyph glyph-name="Scircumflex" unicode="&#x15c;" horiz-adv-x="578" 
d="M146 755l88 127h105l88 -127h-87l-53 80h-2l-52 -80h-87zM53 212h92v-52c0 -52 67 -83 141 -83c81 0 140 38 140 108c0 82 -83 109 -170 143c-93 35 -188 75 -188 200c0 133 107 190 226 190c106 0 214 -40 214 -117v-83h-93v49c0 41 -63 63 -121 63
c-69 0 -124 -32 -124 -97c0 -75 71 -100 150 -130c104 -39 207 -79 207 -210c0 -135 -110 -205 -241 -205c-110 0 -233 49 -233 150v74z" />
    <glyph glyph-name="scircumflex" unicode="&#x15d;" horiz-adv-x="481" 
d="M104 579l88 127h105l88 -127h-87l-53 80h-2l-52 -80h-87zM40 109v54h85v-33c0 -43 60 -63 116 -63c57 0 102 23 102 65c0 51 -56 67 -126 92c-75 28 -158 62 -158 154c0 100 99 140 187 140c71 0 175 -28 175 -102v-61h-85v33c0 31 -40 52 -89 52c-48 0 -90 -20 -90 -61
c0 -48 56 -68 117 -89c78 -26 167 -59 167 -153c0 -96 -88 -149 -203 -149c-92 0 -198 41 -198 121z" />
    <glyph glyph-name="Scedilla" unicode="&#x15e;" horiz-adv-x="578" 
d="M233 -97l23 86c-101 8 -203 57 -203 149v74h92v-52c0 -52 67 -83 141 -83c81 0 140 38 140 108c0 82 -83 109 -170 143c-93 35 -188 75 -188 200c0 133 107 190 226 190c106 0 214 -40 214 -117v-83h-93v49c0 41 -63 63 -121 63c-69 0 -124 -32 -124 -97
c0 -75 71 -100 150 -130c104 -39 207 -79 207 -210c0 -125 -95 -195 -215 -204l-11 -45c43 -3 79 -32 79 -75c0 -62 -56 -86 -111 -86c-31 0 -55 7 -55 7v53s20 -6 45 -6c23 0 50 5 50 32c0 24 -26 34 -58 34h-18z" />
    <glyph glyph-name="scedilla" unicode="&#x15f;" horiz-adv-x="481" 
d="M188 -97l23 86c-86 8 -171 48 -171 120v54h85v-33c0 -43 60 -63 116 -63c57 0 102 22 102 65c0 51 -56 67 -126 92c-75 28 -158 62 -158 154c0 100 99 140 187 140c71 0 175 -28 175 -102v-61h-85v33c0 31 -40 52 -89 52c-48 0 -90 -20 -90 -61c0 -48 56 -68 117 -89
c78 -26 167 -59 167 -153c0 -87 -73 -140 -175 -147l-11 -46c43 -3 79 -32 79 -75c0 -62 -55 -86 -111 -86c-30 0 -54 7 -54 7v53s19 -6 44 -6c23 0 50 5 50 32c0 24 -26 34 -58 34h-17z" />
    <glyph glyph-name="Scaron" unicode="&#x160;" horiz-adv-x="578" 
d="M234 755l-88 127h87l52 -81h2l53 81h87l-88 -127h-105zM53 212h92v-52c0 -52 67 -83 141 -83c81 0 140 38 140 108c0 82 -83 109 -170 143c-93 35 -188 75 -188 200c0 133 107 190 226 190c106 0 214 -40 214 -117v-83h-93v49c0 41 -63 63 -121 63
c-69 0 -124 -32 -124 -97c0 -75 71 -100 150 -130c104 -39 207 -79 207 -210c0 -135 -110 -205 -241 -205c-110 0 -233 49 -233 150v74z" />
    <glyph glyph-name="scaron" unicode="&#x161;" horiz-adv-x="481" 
d="M192 579l-88 127h87l52 -81h2l53 81h87l-88 -127h-105zM40 109v54h85v-33c0 -43 60 -63 116 -63c57 0 102 23 102 65c0 51 -56 67 -126 92c-75 28 -158 62 -158 154c0 100 99 140 187 140c71 0 175 -28 175 -102v-61h-85v33c0 31 -40 52 -89 52c-48 0 -90 -20 -90 -61
c0 -48 56 -68 117 -89c78 -26 167 -59 167 -153c0 -96 -88 -149 -203 -149c-92 0 -198 41 -198 121z" />
    <glyph glyph-name="Tcommaaccent" unicode="&#x162;" horiz-adv-x="664" 
d="M193 0v78h89v546h-166v-110h-87v192h606v-192h-87v110h-166v-546h89v-78h-114l-13 -56c43 -3 79 -32 79 -75c0 -62 -56 -86 -111 -86c-30 0 -55 7 -55 7v53s20 -6 45 -6c23 0 50 5 50 32c0 24 -26 34 -58 34h-18l26 97h-109z" />
    <glyph glyph-name="tcommaaccent" unicode="&#x163;" horiz-adv-x="361" 
d="M161 -97l30 115c-47 25 -86 73 -86 167v246h-85v75h87v139h95v-139h121v-75h-121v-237c0 -103 70 -116 107 -116c14 0 23 1 23 1v-81s-13 -2 -34 -2c-16 0 -36 1 -56 5l-14 -57c44 -3 79 -32 79 -75c0 -62 -55 -86 -111 -86c-30 0 -54 7 -54 7v53s19 -6 44 -6
c23 0 51 5 51 32c0 24 -27 34 -59 34h-17z" />
    <glyph glyph-name="Tcaron" unicode="&#x164;" horiz-adv-x="664" 
d="M279 755l-88 127h87l52 -81h2l53 81h87l-88 -127h-105zM193 0v78h89v546h-166v-110h-87v192h606v-192h-87v110h-166v-546h89v-78h-278z" />
    <glyph glyph-name="tcaron" unicode="&#x165;" horiz-adv-x="360" 
d="M289 720h85c5 -15 7 -33 7 -49c0 -51 -31 -95 -76 -118l-42 34c23 22 38 48 38 78c0 17 -4 34 -12 55zM103 185v246h-85v75h87v139h95v-139h121v-75h-121v-237c0 -103 70 -116 108 -116c14 0 23 1 23 1v-81s-14 -2 -35 -2c-64 0 -193 20 -193 189z" />
    <glyph glyph-name="Tbar" unicode="&#x166;" horiz-adv-x="664" 
d="M102 313v70h180v241h-166v-110h-87v192h606v-192h-87v110h-166v-241h180v-70h-180v-235h89v-78h-278v78h89v235h-180z" />
    <glyph glyph-name="tbar" unicode="&#x167;" horiz-adv-x="360" 
d="M21 264v70h82v101h-85v71h87v139h95v-139h121v-71h-121v-101h115v-70h-115v-70c0 -103 70 -116 108 -116c14 0 23 1 23 1v-81s-14 -2 -35 -2c-64 0 -193 20 -193 189v79h-82z" />
    <glyph glyph-name="Utilde" unicode="&#x168;" horiz-adv-x="797" 
d="M120 263v366h-89v77h278v-77h-89v-365c0 -46 9 -86 27 -115c29 -46 84 -72 152 -72c67 0 123 26 152 74c17 29 27 68 27 114v364h-89v77h277v-77h-88v-366c0 -67 -18 -128 -49 -172c-48 -68 -134 -103 -230 -103c-100 0 -184 38 -232 103c-33 45 -47 104 -47 172z
M229 756c0 84 34 127 102 127c72 0 86 -67 127 -67c32 0 40 35 40 64h72c0 -83 -34 -127 -102 -127c-72 0 -86 67 -127 67c-32 0 -40 -34 -40 -64h-72z" />
    <glyph glyph-name="utilde" unicode="&#x169;" horiz-adv-x="665" 
d="M105 182v249h-85v75h182v-304c0 -70 14 -126 95 -126c101 0 164 97 164 197v158h-85v75h182v-410c0 -14 8 -22 22 -22h53v-74h-105c-44 0 -64 20 -64 56v22c0 17 2 30 2 30h-2c-10 -27 -67 -120 -193 -120c-109 0 -166 60 -166 194zM149 580c0 84 34 127 102 127
c72 0 86 -67 127 -67c32 0 40 35 40 64h72c0 -83 -34 -127 -102 -127c-72 0 -86 67 -127 67c-32 0 -40 -34 -40 -64h-72z" />
    <glyph glyph-name="Umacron" unicode="&#x16a;" horiz-adv-x="797" 
d="M120 263v366h-89v77h278v-77h-89v-365c0 -46 9 -86 27 -115c29 -46 84 -72 152 -72c67 0 123 26 152 74c17 29 27 68 27 114v364h-89v77h277v-77h-88v-366c0 -67 -18 -128 -49 -172c-48 -68 -134 -103 -230 -103c-100 0 -184 38 -232 103c-33 45 -47 104 -47 172z
M272 784v71h255v-71h-255z" />
    <glyph glyph-name="umacron" unicode="&#x16b;" horiz-adv-x="665" 
d="M105 182v249h-85v75h182v-304c0 -70 14 -126 95 -126c101 0 164 97 164 197v158h-85v75h182v-410c0 -14 8 -22 22 -22h53v-74h-105c-44 0 -64 20 -64 56v22c0 17 2 30 2 30h-2c-10 -27 -67 -120 -193 -120c-109 0 -166 60 -166 194zM192 608v71h255v-71h-255z" />
    <glyph glyph-name="Ubreve" unicode="&#x16c;" horiz-adv-x="797" 
d="M120 263v366h-89v77h278v-77h-89v-365c0 -46 9 -86 27 -115c29 -46 84 -72 152 -72c67 0 123 26 152 74c17 29 27 68 27 114v364h-89v77h277v-77h-88v-366c0 -67 -18 -128 -49 -172c-48 -68 -134 -103 -230 -103c-100 0 -184 38 -232 103c-33 45 -47 104 -47 172z
M399 751c-70 0 -133 40 -133 117v14h74v-13c0 -41 29 -59 59 -59c28 0 58 18 58 60v12h74v-14c0 -77 -63 -117 -132 -117z" />
    <glyph glyph-name="ubreve" unicode="&#x16d;" horiz-adv-x="665" 
d="M105 182v249h-85v75h182v-304c0 -70 14 -126 95 -126c101 0 164 97 164 197v158h-85v75h182v-410c0 -14 8 -22 22 -22h53v-74h-105c-44 0 -64 20 -64 56v22c0 17 2 30 2 30h-2c-10 -27 -67 -120 -193 -120c-109 0 -166 60 -166 194zM319 575c-70 0 -133 40 -133 117v14
h74v-13c0 -41 29 -59 59 -59c28 0 58 18 58 60v12h74v-14c0 -77 -63 -117 -132 -117z" />
    <glyph glyph-name="Uring" unicode="&#x16e;" horiz-adv-x="797" 
d="M399 739c-48 0 -92 30 -92 80c0 52 44 83 92 83s94 -31 94 -83c0 -50 -46 -80 -94 -80zM399 783c23 0 37 15 37 36c0 24 -14 39 -37 39c-21 0 -36 -15 -36 -39c0 -21 14 -36 36 -36zM120 263v366h-89v77h278v-77h-89v-365c0 -46 9 -86 27 -115c29 -46 84 -72 152 -72
c67 0 123 26 152 74c17 29 27 68 27 114v364h-89v77h277v-77h-88v-366c0 -67 -18 -128 -49 -172c-48 -68 -134 -103 -230 -103c-100 0 -184 38 -232 103c-33 45 -47 104 -47 172z" />
    <glyph glyph-name="uring" unicode="&#x16f;" horiz-adv-x="665" 
d="M319 563c-48 0 -92 30 -92 80c0 52 44 83 92 83s94 -31 94 -83c0 -50 -46 -80 -94 -80zM319 607c23 0 37 15 37 36c0 24 -14 39 -37 39c-21 0 -36 -15 -36 -39c0 -21 14 -36 36 -36zM105 182v249h-85v75h182v-304c0 -70 14 -126 95 -126c101 0 164 97 164 197v158h-85v75
h182v-410c0 -14 8 -22 22 -22h53v-74h-105c-44 0 -64 20 -64 56v22c0 17 2 30 2 30h-2c-10 -27 -67 -120 -193 -120c-109 0 -166 60 -166 194z" />
    <glyph glyph-name="Uhungarumlaut" unicode="&#x170;" horiz-adv-x="797" 
d="M120 263v366h-89v77h278v-77h-89v-365c0 -46 9 -86 27 -115c29 -46 84 -72 152 -72c67 0 123 26 152 74c17 29 27 68 27 114v364h-89v77h277v-77h-88v-366c0 -67 -18 -128 -49 -172c-48 -68 -134 -103 -230 -103c-100 0 -184 38 -232 103c-33 45 -47 104 -47 172z
M420 755l73 127h103l-95 -127h-81zM266 755l68 127h89l-70 -127h-87z" />
    <glyph glyph-name="uhungarumlaut" unicode="&#x171;" horiz-adv-x="665" 
d="M105 182v249h-85v75h182v-304c0 -70 14 -126 95 -126c101 0 164 97 164 197v158h-85v75h182v-410c0 -14 8 -22 22 -22h53v-74h-105c-44 0 -64 20 -64 56v22c0 17 2 30 2 30h-2c-10 -27 -67 -120 -193 -120c-109 0 -166 60 -166 194zM340 579l73 127h103l-95 -127h-81z
M186 579l68 127h89l-70 -127h-87z" />
    <glyph glyph-name="Uogonek" unicode="&#x172;" horiz-adv-x="797" 
d="M119 250v379h-88v77h277v-77h-89v-378c0 -110 71 -174 179 -174s179 64 179 175v377h-89v77h278v-77h-89v-379c0 -115 -63 -197 -157 -243c-13 -6 -80 -50 -80 -110c0 -36 44 -47 64 -49l-19 -68c-39 4 -122 25 -122 101c0 43 26 81 55 108c-165 -9 -299 87 -299 261z
" />
    <glyph glyph-name="uogonek" unicode="&#x173;" horiz-adv-x="665" 
d="M471 -119c0 50 33 93 67 119h-13c-40 0 -61 21 -61 56v22c0 17 2 30 2 30h-2c-10 -27 -68 -120 -191 -120c-112 0 -168 60 -168 194v249h-85v75h182v-304c0 -70 14 -126 95 -126c103 0 164 98 164 197v158h-85v75h182v-410c0 -14 8 -22 22 -22h53v-74h-5
c-20 0 -81 -56 -81 -103c0 -36 44 -47 64 -49l-18 -68c-40 4 -122 25 -122 101z" />
    <glyph glyph-name="Wcircumflex" unicode="&#x174;" horiz-adv-x="1009" 
d="M364 755l88 127h105l88 -127h-87l-53 80h-2l-52 -80h-87zM16 629v77h251v-77h-84l110 -463c5 -25 8 -53 8 -53h3s4 28 10 53l148 540h85l147 -540c7 -25 10 -53 10 -53h4s2 28 7 53l110 463h-84v77h252v-77h-68l-158 -629h-114l-138 501c-7 25 -9 56 -9 56h-4
s-2 -31 -9 -56l-138 -501h-114l-157 629h-68z" />
    <glyph glyph-name="wcircumflex" unicode="&#x175;" horiz-adv-x="856" 
d="M289 579l88 127h105l88 -127h-87l-53 80h-2l-52 -80h-87zM10 431v75h226v-75h-68l86 -294c6 -21 8 -47 8 -47h3s2 26 8 47l111 368h88l111 -368c6 -21 8 -47 8 -47h3s2 26 8 47l87 294h-69v75h226v-75h-63l-130 -431h-108l-107 338c-6 23 -9 48 -9 48h-2s-3 -25 -9 -48
l-107 -338h-108l-130 431h-63z" />
    <glyph glyph-name="Ycircumflex" unicode="&#x176;" horiz-adv-x="650" 
d="M186 0v78h89v221l-198 330h-67v77h243v-77h-74l131 -222c8 -15 14 -30 14 -30h2s6 15 15 30l131 222h-73v77h241v-77h-67l-198 -330v-221h89v-78h-278zM186 755l88 127h105l88 -127h-87l-53 80h-2l-52 -80h-87z" />
    <glyph glyph-name="ycircumflex" unicode="&#x177;" horiz-adv-x="590" 
d="M64 -105c0 0 29 -24 72 -24s76 30 93 70l21 50l-177 440h-64v75h231v-75h-67l113 -301c7 -22 9 -44 9 -44h3s4 22 12 44l112 301h-65v75h224v-75h-63l-200 -511c-34 -86 -100 -130 -178 -130c-65 0 -109 32 -109 32zM160 579l88 127h105l88 -127h-87l-53 80h-2l-52 -80
h-87z" />
    <glyph glyph-name="Ydieresis" unicode="&#x178;" horiz-adv-x="650" 
d="M186 0v78h89v221l-198 330h-67v77h243v-77h-74l131 -222c8 -15 14 -30 14 -30h2s6 15 15 30l131 222h-73v77h241v-77h-67l-198 -330v-221h89v-78h-278zM383 781v101h86v-101h-86zM183 781v101h86v-101h-86z" />
    <glyph glyph-name="Zacute" unicode="&#x179;" horiz-adv-x="632" 
d="M265 755l104 127h111l-124 -127h-91zM54 0v66l364 525c14 20 29 34 29 34v2s-20 -3 -40 -3h-261v-110h-87v192h509v-65l-364 -526c-14 -20 -29 -34 -29 -34v-2s20 3 40 3h276v114h87v-196h-524z" />
    <glyph glyph-name="zacute" unicode="&#x17a;" horiz-adv-x="527" 
d="M209 579l104 127h111l-124 -127h-91zM48 64l279 338c15 18 28 29 28 29v2s-21 -2 -41 -2h-176v-81h-85v156h419v-64l-277 -338c-15 -18 -28 -28 -28 -28v-2s20 1 40 1h187v81h85v-156h-431v64z" />
    <glyph glyph-name="Zdotaccent" unicode="&#x17b;" horiz-adv-x="632" 
d="M54 0v66l364 525c14 20 29 34 29 34v2s-20 -3 -40 -3h-261v-110h-87v192h509v-65l-364 -526c-14 -20 -29 -34 -29 -34v-2s20 3 40 3h276v114h87v-196h-524zM280 784v98h91v-98h-91z" />
    <glyph glyph-name="zdotaccent" unicode="&#x17c;" horiz-adv-x="527" 
d="M48 64l279 338c15 18 28 29 28 29v2s-21 -2 -41 -2h-176v-81h-85v156h419v-64l-277 -338c-15 -18 -28 -28 -28 -28v-2s20 1 40 1h187v81h85v-156h-431v64zM224 608v98h91v-98h-91z" />
    <glyph glyph-name="Zcaron" unicode="&#x17d;" horiz-adv-x="632" 
d="M273 755l-88 127h87l52 -81h2l53 81h87l-88 -127h-105zM54 0v66l364 525c14 20 29 34 29 34v2s-20 -3 -40 -3h-261v-110h-87v192h509v-65l-364 -526c-14 -20 -29 -34 -29 -34v-2s20 3 40 3h276v114h87v-196h-524z" />
    <glyph glyph-name="zcaron" unicode="&#x17e;" horiz-adv-x="527" 
d="M217 579l-88 127h87l52 -81h2l53 81h87l-88 -127h-105zM48 64l279 338c15 18 28 29 28 29v2s-21 -2 -41 -2h-176v-81h-85v156h419v-64l-277 -338c-15 -18 -28 -28 -28 -28v-2s20 1 40 1h187v81h85v-156h-431v64z" />
    <glyph glyph-name="longs" unicode="&#x17f;" horiz-adv-x="334" 
d="M48 0v75h74v356h-79v75h79v25c0 162 123 182 185 182c28 0 47 -3 47 -3v-81s-13 3 -37 3c-33 0 -98 -10 -98 -99v-458h87v-75h-258z" />
    <glyph glyph-name="florin" unicode="&#x192;" horiz-adv-x="507" 
d="M-18 -21c0 0 39 -6 66 -6c37 0 105 13 114 111l23 266h-82v78h89l9 102c15 167 144 188 208 188c38 0 84 -7 84 -7v-84s-49 7 -79 7c-38 0 -106 -13 -115 -111l-10 -95h117v-78h-124l-23 -274c-15 -167 -143 -187 -207 -187c-34 0 -70 6 -70 6v84z" />
    <glyph glyph-name="Scommaaccent" unicode="&#x218;" horiz-adv-x="578" 
d="M245 -58h85c5 -15 7 -33 7 -49c0 -51 -31 -95 -76 -118l-42 34c23 22 38 48 38 78c0 17 -4 34 -12 55zM53 212h92v-52c0 -52 67 -83 141 -83c81 0 140 38 140 108c0 82 -83 109 -170 143c-93 35 -188 75 -188 200c0 133 107 190 226 190c106 0 214 -40 214 -117v-83h-93
v49c0 41 -63 63 -121 63c-69 0 -124 -32 -124 -97c0 -75 71 -100 150 -130c104 -39 207 -79 207 -210c0 -135 -110 -205 -241 -205c-110 0 -233 49 -233 150v74z" />
    <glyph glyph-name="scommaaccent" unicode="&#x219;" horiz-adv-x="481" 
d="M200 -58h85c5 -15 7 -33 7 -49c0 -51 -31 -95 -76 -118l-42 34c23 22 38 48 38 78c0 17 -4 34 -12 55zM40 109v54h85v-33c0 -43 60 -63 116 -63c57 0 102 23 102 65c0 51 -56 67 -126 92c-75 28 -158 62 -158 154c0 100 99 140 187 140c71 0 175 -28 175 -102v-61h-85v33
c0 31 -40 52 -89 52c-48 0 -90 -20 -90 -61c0 -48 56 -68 117 -89c78 -26 167 -59 167 -153c0 -96 -88 -149 -203 -149c-92 0 -198 41 -198 121z" />
    <glyph glyph-name="uni021A" unicode="&#x21a;" horiz-adv-x="664" 
d="M289 -58h85c5 -15 7 -33 7 -49c0 -51 -31 -95 -76 -118l-42 34c23 22 38 48 38 78c0 17 -4 34 -12 55zM193 0v78h89v546h-166v-110h-87v192h606v-192h-87v110h-166v-546h89v-78h-278z" />
    <glyph glyph-name="uni021B" unicode="&#x21b;" horiz-adv-x="360" 
d="M182 -58h85c5 -15 7 -33 7 -49c0 -51 -31 -95 -76 -118l-42 34c23 22 38 48 38 78c0 17 -4 34 -12 55zM103 185v246h-85v75h87v139h95v-139h121v-75h-121v-237c0 -103 70 -116 108 -116c14 0 23 1 23 1v-81s-14 -2 -35 -2c-64 0 -193 20 -193 189z" />
    <glyph glyph-name="ogonek" unicode="&#x2db;" horiz-adv-x="499" 
d="M166 -119c0 70 70 125 97 139h61v-20c-20 0 -82 -56 -82 -103c0 -36 44 -47 64 -49l-18 -68c-40 4 -122 25 -122 101z" />
    <glyph glyph-name="uni1E9E" unicode="&#x1e9e;" horiz-adv-x="720" 
d="M37 0v78h89v420c0 120 89 208 211 208h285v-67l-128 -197c-9 -14 -18 -24 -18 -24v-2c108 -21 196 -87 196 -201c0 -121 -91 -223 -265 -223c-44 0 -80 7 -95 10v87c12 -3 44 -10 84 -10c119 0 174 59 174 134c0 69 -45 122 -195 133v60l119 189c9 15 20 26 20 26v2
s-15 -3 -29 -3h-144c-68 0 -115 -53 -115 -121v-499h-189z" />
    <glyph glyph-name="endash" unicode="&#x2013;" horiz-adv-x="714" 
d="M94 246v78h526v-78h-526z" />
    <glyph glyph-name="emdash" unicode="&#x2014;" horiz-adv-x="914" 
d="M94 246v78h726v-78h-726z" />
    <glyph glyph-name="quoteleft" unicode="&#x2018;" horiz-adv-x="229" 
d="M47 499l71 218h72l-49 -218h-94z" />
    <glyph glyph-name="quoteright" unicode="&#x2019;" horiz-adv-x="223" 
d="M50 499l49 218h94l-71 -218h-72z" />
    <glyph glyph-name="quotesinglbase" unicode="&#x201a;" horiz-adv-x="246" 
d="M36 -113l49 218h92l-71 -218h-70z" />
    <glyph glyph-name="quotedblleft" unicode="&#x201c;" horiz-adv-x="377" 
d="M47 499l71 218h72l-48 -218h-95zM194 499l71 218h72l-48 -218h-95z" />
    <glyph glyph-name="quotedblright" unicode="&#x201d;" horiz-adv-x="370" 
d="M197 499l49 218h94l-71 -218h-72zM50 499l49 218h94l-71 -218h-72z" />
    <glyph glyph-name="quotedblbase" unicode="&#x201e;" horiz-adv-x="390" 
d="M181 -113l49 218h91l-71 -218h-69zM36 -113l49 218h92l-71 -218h-70z" />
    <glyph glyph-name="dagger" unicode="&#x2020;" horiz-adv-x="422" 
d="M163 -50v479h-121v77h121v200h93v-200h124v-77h-124v-479h-93z" />
    <glyph glyph-name="daggerdbl" unicode="&#x2021;" horiz-adv-x="435" 
d="M48 171v78h121v180h-121v77h121v200h94v-200h124v-77h-124v-180h124v-78h-124v-221h-94v221h-121z" />
    <glyph glyph-name="bullet" unicode="&#x2022;" horiz-adv-x="413" 
d="M206 136c-85 0 -154 69 -154 155s69 155 154 155c86 0 155 -69 155 -155s-69 -155 -155 -155z" />
    <glyph glyph-name="ellipsis" unicode="&#x2026;" horiz-adv-x="772" 
d="M595 0v105h101v-105h-101zM335 0v105h102v-105h-102zM76 0v105h101v-105h-101z" />
    <glyph glyph-name="perthousand" unicode="&#x2030;" horiz-adv-x="1104" 
d="M202 422c-84 0 -151 66 -151 148c0 81 67 148 151 148s152 -67 152 -148c0 -82 -68 -148 -152 -148zM67 0l539 706h94l-540 -706h-93zM202 496c42 0 74 32 74 74c0 41 -32 75 -74 75c-41 0 -73 -34 -73 -75c0 -42 32 -74 73 -74zM768 136c0 81 67 148 151 148
s152 -67 152 -148c0 -82 -68 -148 -152 -148s-151 66 -151 148zM413 136c0 81 68 148 152 148s152 -67 152 -148c0 -82 -68 -148 -152 -148s-152 66 -152 148zM846 136c0 -42 32 -74 73 -74c42 0 74 32 74 74c0 41 -32 75 -74 75c-41 0 -73 -34 -73 -75zM491 136
c0 -42 32 -74 74 -74c41 0 74 32 74 74c0 41 -33 75 -74 75c-42 0 -74 -34 -74 -75z" />
    <glyph glyph-name="guilsinglleft" unicode="&#x2039;" horiz-adv-x="359" 
d="M207 77l-164 205l164 206h97l-164 -206l164 -205h-97z" />
    <glyph glyph-name="guilsinglright" unicode="&#x203a;" horiz-adv-x="359" 
d="M55 77l164 205l-164 206h97l164 -206l-164 -205h-97z" />
    <glyph glyph-name="Euro" unicode="&#x20ac;" horiz-adv-x="599" 
d="M44 250v61h55c-3 23 -3 64 0 92h-55v62h66c41 146 172 253 337 253c55 0 101 -12 101 -12l-23 -86s-39 10 -80 10c-112 0 -197 -67 -230 -165h280l-13 -62h-281c-4 -30 -3 -61 0 -92h265l-13 -61h-235c31 -102 118 -173 230 -173c51 0 92 14 92 14l19 -86
s-49 -17 -112 -17c-171 0 -300 110 -338 262h-65z" />
    <glyph glyph-name="trademark" unicode="&#x2122;" horiz-adv-x="954" 
d="M440 266l35 440h70l104 -230c8 -18 13 -42 13 -42h2s6 24 14 42l104 230h70l34 -440h-76l-20 263c-1 15 1 30 1 30h-2l-95 -212h-61l-95 212h-2s2 -15 1 -30l-21 -263h-76zM181 266v373h-153v67h381v-67h-153v-373h-75z" />
    <glyph glyph-name="minus" unicode="&#x2212;" horiz-adv-x="613" 
d="M48 246v78h517v-78h-517z" />
    <glyph glyph-name="infinity" unicode="&#x221e;" horiz-adv-x="491" 
d="M246 167c-100 0 -182 82 -182 182c0 101 82 181 182 181s181 -80 181 -181c0 -100 -81 -182 -181 -182z" />
    <glyph glyph-name="approxequal" unicode="&#x2248;" horiz-adv-x="613" 
d="M98 321l-41 59c34 36 90 73 151 73c94 0 127 -70 198 -70c41 0 83 26 110 55l41 -59c-34 -35 -90 -72 -151 -72c-94 0 -127 70 -198 70c-42 0 -83 -28 -110 -56zM98 133l-41 58c34 36 90 73 151 73c94 0 127 -70 198 -70c41 0 83 26 110 55l41 -59
c-34 -35 -90 -72 -151 -72c-94 0 -127 70 -198 70c-42 0 -83 -27 -110 -55z" />
    <glyph glyph-name="notequal" unicode="&#x2260;" horiz-adv-x="613" 
d="M121 73l56 78h-110v78h162l80 111h-242v78h294l82 115l51 -35l-58 -80h108v-78h-160l-79 -111h239v-78h-292l-79 -112z" />
    <glyph glyph-name="lessequal" unicode="&#x2264;" horiz-adv-x="613" 
d="M58 252v66l466 208v-89l-358 -151v-2l358 -151v-89zM59 -95h465v-78h-465v78z" />
    <glyph glyph-name="greaterequal" unicode="&#x2265;" horiz-adv-x="613" 
d="M89 44v89l357 151v2l-357 151v89l466 -208v-66zM89 -95h465v-78h-465v78z" />
    <glyph glyph-name="apple" horiz-adv-x="1130" 
d="M168 -5v152l-126 72v278l126 71v151l265 142l134 -71l132 71l265 -142v-151l124 -71v-278l-124 -72v-152l-265 -141l-132 71l-134 -71zM208 30l238 -126l121 66l118 -66l238 126v139l114 64v249l-114 66v136l-238 126l-118 -64l-121 64l-238 -126v-136l-114 -66v-249
l114 -64v-139zM242 64v121l-99 60v225l99 58v123l215 114l110 -59l107 59l214 -114v-123l100 -58v-225l-100 -60v-121l-214 -114l-107 58l-110 -58zM438 91h79v204h206v69h-206v165h151c20 0 24 -8 24 -26v-33h73v74c0 37 -13 53 -54 53h-331v-68h58v-438z" />
    <glyph glyph-name="zero.tnum" horiz-adv-x="574" 
d="M287 -12c-189 0 -250 162 -250 366c0 203 61 364 250 364c188 0 250 -161 250 -364c0 -204 -62 -366 -250 -366zM287 77c115 0 148 121 148 277c0 154 -33 276 -148 276c-116 0 -148 -122 -148 -276c0 -156 32 -277 148 -277z" />
    <glyph glyph-name="one.tnum" horiz-adv-x="574" 
d="M98 0v82h156v460c0 22 1 43 1 43h-2s-8 -15 -34 -40l-66 -65l-60 62l169 164h88v-624h154v-82h-406z" />
    <glyph glyph-name="two.tnum" horiz-adv-x="574" 
d="M48 0c-3 19 -5 37 -5 54c0 252 351 283 351 457c0 73 -52 119 -127 119c-93 0 -146 -94 -146 -94l-70 48s64 134 224 134c129 0 223 -81 223 -203c0 -227 -345 -264 -347 -433h288v94h87v-176h-478z" />
    <glyph glyph-name="three.tnum" horiz-adv-x="574" 
d="M71 534v172h431v-69l-187 -220c88 -9 200 -66 200 -202c0 -121 -95 -227 -242 -227c-145 0 -229 96 -229 96l52 71s71 -78 172 -78c79 0 145 56 145 134c0 84 -70 131 -156 131c-19 0 -37 -1 -42 -2l-23 52l172 207c11 14 27 26 27 26v2s-22 -3 -36 -3h-197v-90h-87z" />
    <glyph glyph-name="four.tnum" horiz-adv-x="574" 
d="M13 189v62l327 455h112v-437h96v-80h-96v-189h-97v189h-342zM331 553l-210 -282v-2h234v277c0 24 5 54 5 54h-3s-11 -25 -26 -47z" />
    <glyph glyph-name="five.tnum" horiz-adv-x="574" 
d="M47 79l52 70s59 -72 161 -72c89 0 159 64 159 144c0 87 -63 146 -160 146c-75 0 -124 -36 -124 -36l-58 21l35 354h365v-172h-87v90h-192l-18 -169c-2 -13 -5 -28 -5 -28h2s39 22 100 22c146 0 244 -98 244 -224c0 -133 -109 -237 -256 -237c-143 0 -218 91 -218 91z" />
    <glyph glyph-name="six.tnum" horiz-adv-x="574" 
d="M308 -12c-154 0 -264 132 -264 330c0 187 99 400 321 400c81 0 135 -29 135 -29l-31 -83s-45 24 -102 24c-130 0 -198 -121 -213 -240h2c31 40 94 67 160 67c133 0 224 -102 224 -231c0 -140 -99 -238 -232 -238zM148 266c0 -82 65 -189 159 -189c82 0 132 62 132 149
c0 85 -54 148 -151 148c-79 0 -140 -51 -140 -108z" />
    <glyph glyph-name="seven.tnum" horiz-adv-x="574" 
d="M118 0l292 590c11 23 22 35 22 35v2s-18 -3 -41 -3h-249v-90h-87v172h484v-68l-319 -638h-102z" />
    <glyph glyph-name="eight.tnum" horiz-adv-x="574" 
d="M41 199c0 113 94 178 114 192c-50 33 -86 77 -86 142c0 94 72 185 220 185c132 0 224 -74 224 -186c0 -97 -71 -172 -84 -185c58 -34 101 -81 101 -153c0 -108 -95 -206 -242 -206c-141 0 -247 90 -247 211zM167 532c0 -81 94 -108 188 -149c11 13 61 68 61 138
s-51 111 -127 111c-79 0 -122 -45 -122 -100zM141 209c0 -81 69 -134 146 -134c74 0 142 50 142 119c0 82 -94 105 -204 155c-20 -15 -84 -61 -84 -140z" />
    <glyph glyph-name="nine.tnum" horiz-adv-x="574" 
d="M33 481c0 140 100 237 233 237c153 0 263 -132 263 -330c0 -185 -98 -400 -321 -400c-81 0 -136 29 -136 29l31 84s45 -24 103 -24c131 0 199 121 214 240h-2c-31 -38 -95 -64 -161 -64c-133 0 -224 101 -224 228zM135 481c0 -84 54 -145 148 -145c78 0 142 50 142 107
c0 84 -68 187 -159 187c-81 0 -131 -64 -131 -149z" />
    <glyph glyph-name="hyphen.case" horiz-adv-x="466" 
d="M87 305v86h292v-86h-292z" />
    <glyph glyph-name="parenleft.case" horiz-adv-x="315" 
d="M185 -65c-72 120 -116 274 -116 435c0 144 42 277 116 395h85c-73 -122 -113 -255 -113 -396c0 -149 38 -298 113 -434h-85z" />
    <glyph glyph-name="parenright.case" horiz-adv-x="315" 
d="M45 -65c75 136 113 285 113 434c0 141 -40 274 -113 396h85c74 -118 116 -251 116 -395c0 -161 -44 -315 -116 -435h-85z" />
    <glyph glyph-name="bracketleft.case" horiz-adv-x="313" 
d="M97 -65v830h165v-73h-80v-683h80v-74h-165z" />
    <glyph glyph-name="bracketright.case" horiz-adv-x="314" 
d="M51 9h80v683h-80v73h166v-830h-166v74z" />
    <glyph glyph-name="braceleft.case" horiz-adv-x="337" 
d="M118 107v96c0 102 -85 109 -85 109v86s85 7 85 111v84c0 158 114 174 162 174c14 0 23 -1 23 -1v-74h-14c-25 0 -86 -9 -86 -105v-103c0 -99 -81 -127 -81 -127v-2s81 -24 81 -127v-115c0 -96 61 -105 86 -105h14v-74s-9 -2 -23 -2c-48 0 -162 16 -162 175z" />
    <glyph glyph-name="braceright.case" horiz-adv-x="337" 
d="M34 8h14c25 0 86 9 86 105v115c0 103 81 127 81 127v2s-81 28 -81 127v103c0 96 -61 105 -86 105h-14v74s9 1 23 1c48 0 162 -16 162 -174v-84c0 -104 85 -111 85 -111v-86s-85 -7 -85 -109v-96c0 -159 -114 -175 -162 -175c-14 0 -23 2 -23 2v74z" />
    <glyph glyph-name="at.case" horiz-adv-x="769" 
d="M41 352c0 206 161 370 365 370c193 0 260 -98 260 -204v-283h72v-73h-273c-125 0 -207 89 -207 189c0 99 81 188 207 188h108c-2 57 -59 103 -162 103c-155 0 -273 -135 -273 -290c0 -158 114 -288 284 -288v-79c-223 0 -381 163 -381 367zM356 353
c0 -65 48 -118 116 -118h101v237h-99c-70 0 -118 -55 -118 -119z" />
    <glyph glyph-name="guillemotleft.case" horiz-adv-x="562" 
d="M409 137l-164 205l164 206h97l-164 -206l164 -205h-97zM207 137l-164 205l164 206h97l-164 -206l164 -205h-97z" />
    <glyph glyph-name="guillemotright.case" horiz-adv-x="561" 
d="M257 137l164 205l-164 206h97l164 -206l-164 -205h-97zM56 137l164 205l-164 206h97l164 -206l-164 -205h-97z" />
    <glyph glyph-name="guilsinglleft.case" horiz-adv-x="360" 
d="M207 137l-164 205l164 206h97l-164 -206l164 -205h-97z" />
    <glyph glyph-name="guilsinglright.case" horiz-adv-x="360" 
d="M56 137l164 205l-164 206h97l164 -206l-164 -205h-97z" />
    <glyph glyph-name="endash.case" horiz-adv-x="706" 
d="M90 306v78h526v-78h-526z" />
    <glyph glyph-name="emdash.case" horiz-adv-x="906" 
d="M90 306v78h726v-78h-726z" />
    <glyph glyph-name="periodcentered.case" horiz-adv-x="273" 
d="M86 293v106h101v-106h-101z" />
    <glyph glyph-name="questiondown.case" horiz-adv-x="432" 
d="M205 608v98h100v-98h-100zM31 170c0 165 176 182 176 303v39h95v-45c0 -152 -170 -175 -170 -289c0 -56 48 -100 115 -100c62 0 113 43 113 43l54 -69s-66 -64 -174 -64c-114 0 -209 71 -209 182z" />
    <glyph glyph-name="exclamdown.case" horiz-adv-x="299" 
d="M99 608v98h100v-98h-100zM99 0l7 512h87l7 -512h-101z" />
    <glyph glyph-name="bullet.case" horiz-adv-x="411" 
d="M206 198c-86 0 -155 70 -155 155c0 86 69 155 155 155c85 0 154 -69 154 -155c0 -85 -69 -155 -154 -155z" />
    <glyph glyph-name="zero.p_osf" horiz-adv-x="597" 
d="M58 272c0 143 75 286 240 286c166 0 241 -143 241 -287c0 -143 -74 -283 -241 -283c-166 0 -240 142 -240 284zM156 273c0 -100 43 -201 142 -201c100 0 143 101 143 201s-44 201 -143 201s-142 -101 -142 -201z" />
    <glyph glyph-name="one.p_osf" horiz-adv-x="467" 
d="M61 0v79h152v310c0 27 1 59 1 59h-2s-15 -15 -38 -29l-91 -54l-45 68l184 113h86v-467h137v-79h-384z" />
    <glyph glyph-name="two.p_osf" horiz-adv-x="551" 
d="M64 0v67c173 114 308 215 308 308c0 70 -55 99 -116 99c-83 0 -152 -75 -152 -75l-51 62s80 97 216 97c121 0 202 -74 202 -170c0 -119 -104 -210 -266 -310v-2s20 3 59 3h233v-79h-433z" />
    <glyph glyph-name="three.p_osf" horiz-adv-x="517" 
d="M24 -38l51 66s60 -72 158 -72c76 0 141 49 141 125c0 80 -69 121 -156 121c-18 0 -41 -2 -41 -2l-22 51l166 195c12 14 27 26 27 26v2s-21 -3 -36 -3h-178v-84h-82v159h407v-63l-184 -209c85 -9 197 -58 197 -189c0 -120 -93 -213 -236 -213c-138 0 -212 90 -212 90z" />
    <glyph glyph-name="four.p_osf" horiz-adv-x="582" 
d="M24 36v59l310 451h115v-433h101v-77h-101v-152h-95v152h-330zM128 113h226v278c0 24 4 54 4 54h-3s-11 -25 -25 -46z" />
    <glyph glyph-name="five.p_osf" horiz-adv-x="518" 
d="M23 -37l51 65s57 -65 151 -65c78 0 155 46 155 135c0 87 -75 131 -154 131c-68 0 -120 -31 -120 -31l-55 20l36 328h350v-159h-84v84h-183l-16 -145c-2 -21 -6 -37 -6 -37h2s38 19 97 19c129 0 231 -78 231 -209c0 -132 -107 -221 -246 -221s-209 85 -209 85z" />
    <glyph glyph-name="six.p_osf" horiz-adv-x="583" 
d="M52 294c0 172 96 380 314 380c85 0 138 -27 138 -27l-32 -79s-44 22 -102 22c-129 0 -197 -116 -212 -228h2c30 41 96 65 158 65c134 0 222 -93 222 -216c0 -130 -94 -223 -226 -223c-151 0 -262 118 -262 306zM154 255c0 -85 64 -183 160 -183c81 0 129 58 129 138
s-54 137 -145 137c-80 0 -144 -45 -144 -92z" />
    <glyph glyph-name="seven.p_osf" horiz-adv-x="518" 
d="M89 -116l281 553c11 23 21 35 21 35v2s-18 -3 -41 -3h-229v-84h-84v159h459v-64l-304 -598h-103z" />
    <glyph glyph-name="eight.p_osf" horiz-adv-x="583" 
d="M50 191c0 96 91 158 115 175c-50 31 -85 72 -85 134c0 89 70 174 215 174c128 0 218 -69 218 -178c0 -90 -77 -164 -84 -171c58 -31 101 -74 101 -142c0 -103 -94 -195 -239 -195c-137 0 -241 83 -241 203zM175 498c0 -74 92 -101 181 -137c9 10 63 62 63 130
c0 62 -52 100 -125 100c-76 0 -119 -42 -119 -93zM147 197c0 -76 69 -125 144 -125s140 45 140 113c0 74 -103 100 -196 141c-19 -13 -88 -57 -88 -129z" />
    <glyph glyph-name="nine.p_osf" horiz-adv-x="577" 
d="M105 -22c0 0 45 -22 102 -22c129 0 198 116 212 229h-2c-30 -42 -96 -66 -158 -66c-134 0 -222 94 -222 216c0 131 94 223 226 223c151 0 262 -118 262 -306c0 -172 -96 -380 -314 -380c-85 0 -138 27 -138 27zM279 199c80 0 145 45 145 93c0 84 -65 182 -160 182
c-82 0 -129 -58 -129 -138s53 -137 144 -137z" />
    <glyph glyph-name="zero.t_osf" horiz-adv-x="574" 
d="M46 272c0 143 75 286 240 286c166 0 241 -143 241 -287c0 -143 -74 -283 -241 -283c-166 0 -240 142 -240 284zM144 273c0 -100 43 -201 142 -201c100 0 143 101 143 201s-44 201 -143 201s-142 -101 -142 -201z" />
    <glyph glyph-name="one.t_osf" horiz-adv-x="574" 
d="M114 0v79h152v310c0 27 1 59 1 59h-2s-15 -15 -38 -29l-91 -54l-45 68l184 113h86v-467h137v-79h-384z" />
    <glyph glyph-name="two.t_osf" horiz-adv-x="574" 
d="M75 0v67c173 114 308 215 308 308c0 70 -55 99 -116 99c-83 0 -152 -75 -152 -75l-51 62s80 97 216 97c121 0 202 -74 202 -170c0 -119 -104 -210 -266 -310v-2s20 3 59 3h233v-79h-433z" />
    <glyph glyph-name="three.t_osf" horiz-adv-x="574" 
d="M53 -37l51 66s60 -72 158 -72c75 0 140 49 140 125c0 80 -69 121 -155 121c-18 0 -41 -2 -41 -2l-22 51l165 194c12 14 27 26 27 26v2s-21 -3 -36 -3h-177v-84h-82v159h406v-63l-183 -208c84 -9 196 -58 196 -189c0 -120 -93 -213 -235 -213c-138 0 -212 90 -212 90z" />
    <glyph glyph-name="four.t_osf" horiz-adv-x="574" 
d="M20 36v59l310 451h115v-433h101v-77h-101v-152h-95v152h-330zM124 113h226v278c0 24 4 54 4 54h-3s-11 -25 -25 -46z" />
    <glyph glyph-name="five.t_osf" horiz-adv-x="574" 
d="M51 -37l51 65s57 -65 151 -65c78 0 155 46 155 135c0 87 -75 131 -154 131c-68 0 -120 -31 -120 -31l-55 20l36 328h350v-159h-84v84h-183l-16 -145c-2 -21 -6 -37 -6 -37h2s38 19 97 19c129 0 231 -78 231 -209c0 -132 -107 -221 -246 -221s-209 85 -209 85z" />
    <glyph glyph-name="six.t_osf" horiz-adv-x="574" 
d="M47 294c0 172 96 380 314 380c85 0 138 -27 138 -27l-32 -79s-44 22 -102 22c-129 0 -197 -116 -212 -228h2c30 41 96 65 158 65c134 0 222 -93 222 -216c0 -130 -94 -223 -226 -223c-151 0 -262 118 -262 306zM149 255c0 -85 64 -183 160 -183c81 0 129 58 129 138
s-54 137 -145 137c-80 0 -144 -45 -144 -92z" />
    <glyph glyph-name="seven.t_osf" horiz-adv-x="574" 
d="M117 -116l281 553c11 23 21 35 21 35v2s-18 -3 -41 -3h-229v-84h-84v159h459v-64l-304 -598h-103z" />
    <glyph glyph-name="eight.t_osf" horiz-adv-x="574" 
d="M46 191c0 96 91 158 115 175c-50 31 -85 72 -85 134c0 89 70 174 215 174c128 0 218 -69 218 -178c0 -90 -77 -164 -84 -171c58 -31 101 -74 101 -142c0 -103 -94 -195 -239 -195c-137 0 -241 83 -241 203zM171 498c0 -74 92 -101 181 -137c9 10 63 62 63 130
c0 62 -52 100 -125 100c-76 0 -119 -42 -119 -93zM143 197c0 -76 69 -125 144 -125s140 45 140 113c0 74 -103 100 -196 141c-19 -13 -88 -57 -88 -129z" />
    <glyph glyph-name="nine.t_osf" horiz-adv-x="574" 
d="M110 -22c0 0 45 -22 102 -22c129 0 198 116 212 229h-2c-30 -42 -96 -66 -158 -66c-134 0 -222 94 -222 216c0 131 94 223 226 223c151 0 262 -118 262 -306c0 -172 -96 -380 -314 -380c-85 0 -138 27 -138 27zM284 199c80 0 145 45 145 93c0 84 -65 182 -160 182
c-82 0 -129 -58 -129 -138s53 -137 144 -137z" />
    <glyph glyph-name="dollar.osf" horiz-adv-x="492" 
d="M31 83l47 70s70 -70 173 -70c62 0 109 31 109 79c0 115 -309 62 -309 262c0 96 74 140 166 153v98h70v-97c103 -10 152 -53 152 -53l-37 -74s-55 44 -153 44c-57 0 -104 -19 -104 -71c0 -124 309 -70 309 -260c0 -87 -68 -152 -171 -163v-103h-70v102
c-111 14 -182 83 -182 83z" />
    <glyph glyph-name="cent.osf" horiz-adv-x="526" 
d="M31 299c0 125 85 222 210 242v85h73v-82c109 -9 168 -77 168 -77l-45 -72s-52 63 -140 63c-99 0 -169 -68 -169 -158c0 -92 70 -161 169 -161c88 0 140 64 140 64l45 -72s-60 -70 -168 -78v-80h-73v83c-125 20 -210 116 -210 243z" />
    <glyph glyph-name="sterling.osf" horiz-adv-x="584" 
d="M43 0v83h79v158h-62v68h62v88c0 111 96 193 224 193c104 0 173 -55 173 -55l-47 -72s-56 40 -125 40c-77 0 -127 -49 -127 -109v-85h217v-68h-217v-158h325v-83h-502z" />
    <glyph glyph-name="yen.osf" horiz-adv-x="592" 
d="M81 283v64h94l-140 232h112l104 -184c21 -40 43 -90 43 -90h2s22 50 43 90l104 184h112l-139 -232h96v-64h-134l-34 -57v-22h168v-64h-168v-140h-98v140h-165v64h165v22l-34 57h-131z" />
    <glyph glyph-name="florin.osf" horiz-adv-x="573" 
d="M7 -37c0 0 38 -6 65 -6c37 0 107 13 115 111l21 236h-83v78h89l10 105c15 167 142 188 207 188c37 0 84 -8 84 -8v-83s-50 7 -80 7c-38 0 -106 -13 -115 -111l-10 -98h118v-78h-124l-21 -244c-15 -167 -142 -188 -206 -188c-35 0 -70 7 -70 7v84z" />
    <glyph glyph-name="Euro.osf" horiz-adv-x="570" 
d="M44 192v57h65c-3 23 -2 51 -1 77h-64v58h75c35 112 134 206 306 206c53 0 96 -12 96 -12l-22 -80s-36 10 -76 10c-106 0 -171 -56 -200 -124h252l-13 -58h-255c-3 -23 -3 -54 1 -77h241l-12 -57h-209c29 -68 95 -121 198 -121c49 0 87 14 87 14l18 -81s-46 -16 -106 -16
c-165 0 -266 91 -303 204h-78z" />
    <glyph glyph-name="zero.numerator" horiz-adv-x="399" 
d="M200 259c-120 0 -158 100 -158 229c0 128 38 228 158 228c119 0 157 -100 157 -228c0 -129 -38 -229 -157 -229zM200 328c63 0 81 70 81 160c0 88 -18 158 -81 158c-64 0 -82 -70 -82 -158c0 -90 18 -160 82 -160z" />
    <glyph glyph-name="zerosuperior" unicode="&#x2070;" horiz-adv-x="399" 
d="M200 413c-120 0 -158 100 -158 229c0 128 38 228 158 228c119 0 157 -100 157 -228c0 -129 -38 -229 -157 -229zM200 482c63 0 81 70 81 160c0 88 -18 158 -81 158c-64 0 -82 -70 -82 -158c0 -90 18 -160 82 -160z" />
    <glyph glyph-name="one.numerator" horiz-adv-x="337" 
d="M38 269v62h103v247c0 18 3 31 3 31h-2s-5 -9 -16 -18l-48 -47l-46 49l117 113h67v-375h102v-62h-280z" />
    <glyph glyph-name="two.numerator" horiz-adv-x="373" 
d="M33 309c0 160 214 174 214 273c0 37 -30 65 -71 65c-50 0 -85 -48 -85 -48l-49 45s47 72 140 72c85 0 141 -54 141 -128c0 -147 -206 -155 -212 -257h157v51h63v-113h-294s-4 25 -4 40z" />
    <glyph glyph-name="three.numerator" horiz-adv-x="375" 
d="M47 593v113h280v-48l-112 -130c61 -9 120 -46 120 -124c0 -77 -63 -145 -156 -145c-100 0 -147 66 -147 66l42 51s34 -50 102 -50c43 0 83 32 83 76c0 47 -44 71 -88 71h-32l-16 38l95 115c11 12 22 20 22 20v3s-14 -3 -30 -3h-100v-53h-63z" />
    <glyph glyph-name="four.numerator" horiz-adv-x="392" 
d="M229 269v109h-208v48l201 280h81v-269h62v-59h-62v-109h-74zM98 437h131v146c0 20 4 45 4 45h-3s-9 -22 -21 -39l-111 -150v-2z" />
    <glyph glyph-name="five.numerator" horiz-adv-x="369" 
d="M171 259c-92 0 -143 62 -143 62l42 50s38 -45 96 -45c50 0 91 35 91 83c0 47 -38 83 -92 83c-42 0 -73 -21 -73 -21l-42 15l24 220h236v-113h-62v53h-113l-7 -75c-1 -20 -5 -33 -5 -33h2s23 10 55 10c91 0 153 -62 153 -140s-64 -149 -162 -149z" />
    <glyph glyph-name="fivesuperior" unicode="&#x2075;" horiz-adv-x="368" 
d="M171 413c-92 0 -143 62 -143 62l42 50s38 -45 96 -45c50 0 91 35 91 83c0 47 -38 83 -92 83c-42 0 -73 -21 -73 -21l-42 15l24 220h236v-113h-62v53h-113l-7 -75c-1 -20 -5 -33 -5 -33h2s23 10 55 10c91 0 153 -62 153 -140s-64 -149 -162 -149z" />
    <glyph glyph-name="six.numerator" horiz-adv-x="383" 
d="M204 259c-95 0 -165 79 -165 203c0 115 61 254 197 254c53 0 93 -22 93 -22l-25 -64s-33 16 -65 16c-64 0 -104 -56 -116 -125h2c18 18 52 31 79 31c89 0 146 -60 146 -143c0 -89 -61 -150 -146 -150zM204 328c46 0 71 37 71 82c0 48 -30 84 -81 84
c-42 0 -78 -27 -78 -53c0 -53 36 -113 88 -113z" />
    <glyph glyph-name="sixsuperior" unicode="&#x2076;" horiz-adv-x="383" 
d="M204 413c-95 0 -165 79 -165 203c0 115 61 254 197 254c53 0 93 -22 93 -22l-25 -64s-33 16 -65 16c-64 0 -104 -56 -116 -125h2c18 18 52 31 79 31c89 0 146 -60 146 -143c0 -89 -61 -150 -146 -150zM204 482c46 0 71 37 71 82c0 48 -30 84 -81 84
c-42 0 -78 -27 -78 -53c0 -53 36 -113 88 -113z" />
    <glyph glyph-name="seven.numerator" horiz-adv-x="355" 
d="M60 269l180 355c7 12 16 22 16 22v2s-14 -2 -27 -2h-134v-53h-63v113h305v-51l-198 -386h-79z" />
    <glyph glyph-name="sevensuperior" unicode="&#x2077;" horiz-adv-x="354" 
d="M59 423l180 355c7 12 16 22 16 22v2s-14 -2 -27 -2h-134v-53h-63v113h305v-51l-198 -386h-79z" />
    <glyph glyph-name="eight.numerator" horiz-adv-x="391" 
d="M197 259c-79 0 -159 46 -159 136c0 60 51 100 71 114c-29 21 -51 48 -51 90c0 78 70 117 141 117c70 0 142 -40 142 -119c0 -55 -45 -102 -54 -112c36 -21 64 -50 64 -99c0 -76 -71 -127 -154 -127zM233 511c11 11 37 42 37 82c0 38 -37 58 -72 58c-34 0 -67 -18 -67 -55
c0 -45 51 -62 102 -85zM197 324c38 0 79 26 79 65c0 47 -61 64 -117 91c-16 -13 -47 -41 -47 -82c0 -47 42 -74 85 -74z" />
    <glyph glyph-name="eightsuperior" unicode="&#x2078;" horiz-adv-x="391" 
d="M197 413c-79 0 -159 46 -159 136c0 60 51 100 71 114c-29 21 -51 48 -51 90c0 78 70 117 141 117c70 0 142 -40 142 -119c0 -55 -45 -102 -54 -112c36 -21 64 -50 64 -99c0 -76 -71 -127 -154 -127zM233 665c11 11 37 42 37 82c0 38 -37 58 -72 58c-34 0 -67 -18 -67 -55
c0 -45 51 -62 102 -85zM197 478c38 0 79 26 79 65c0 47 -61 64 -117 91c-16 -13 -47 -41 -47 -82c0 -47 42 -74 85 -74z" />
    <glyph glyph-name="nine.numerator" horiz-adv-x="383" 
d="M148 259c-54 0 -94 22 -94 22l25 64s32 -16 67 -16c60 0 103 56 114 125h-2c-20 -19 -50 -31 -83 -31c-84 0 -142 61 -142 145c0 86 61 148 146 148c95 0 165 -78 165 -203c0 -116 -61 -254 -196 -254zM191 481c42 0 76 24 76 63c0 40 -36 103 -90 103
c-42 0 -69 -37 -69 -82c0 -48 30 -84 83 -84z" />
    <glyph glyph-name="ninesuperior" unicode="&#x2079;" horiz-adv-x="383" 
d="M148 413c-54 0 -94 22 -94 22l25 64s32 -16 67 -16c60 0 103 56 114 125h-2c-20 -19 -50 -31 -83 -31c-84 0 -142 61 -142 145c0 86 61 148 146 148c95 0 165 -78 165 -203c0 -116 -61 -254 -196 -254zM191 635c42 0 76 24 76 63c0 40 -36 103 -90 103
c-42 0 -69 -37 -69 -82c0 -48 30 -84 83 -84z" />
    <glyph glyph-name="zeroinferior" unicode="&#x2080;" horiz-adv-x="399" 
d="M200 -167c-120 0 -158 100 -158 229c0 128 38 228 158 228c119 0 157 -100 157 -228c0 -129 -38 -229 -157 -229zM200 -98c63 0 81 70 81 160c0 88 -18 158 -81 158c-64 0 -82 -70 -82 -158c0 -90 18 -160 82 -160z" />
    <glyph glyph-name="oneinferior" unicode="&#x2081;" horiz-adv-x="336" 
d="M37 -157v62h103v247c0 18 3 31 3 31h-2s-5 -9 -16 -18l-48 -47l-46 49l117 113h67v-375h102v-62h-280z" />
    <glyph glyph-name="twoinferior" unicode="&#x2082;" horiz-adv-x="374" 
d="M34 -117c0 160 214 174 214 273c0 37 -30 65 -71 65c-50 0 -85 -48 -85 -48l-49 45s47 72 140 72c85 0 141 -54 141 -128c0 -147 -206 -155 -212 -257h157v51h63v-113h-294s-4 25 -4 40z" />
    <glyph glyph-name="threeinferior" unicode="&#x2083;" horiz-adv-x="374" 
d="M46 166v113h280v-48l-112 -130c61 -9 120 -46 120 -124c0 -77 -63 -145 -156 -145c-100 0 -147 66 -147 66l42 51s34 -50 102 -50c43 0 83 32 83 76c0 47 -44 71 -88 71h-32l-16 38l95 115c11 12 22 20 22 20v3s-14 -3 -30 -3h-100v-53h-63z" />
    <glyph glyph-name="fourinferior" unicode="&#x2084;" horiz-adv-x="392" 
d="M229 -157v109h-208v48l201 280h81v-269h62v-59h-62v-109h-74zM98 11h131v146c0 20 4 45 4 45h-3s-9 -22 -21 -39l-111 -150v-2z" />
    <glyph glyph-name="fiveinferior" unicode="&#x2085;" horiz-adv-x="368" 
d="M171 -167c-92 0 -143 62 -143 62l42 50s38 -45 96 -45c50 0 91 35 91 83c0 47 -38 83 -92 83c-42 0 -73 -21 -73 -21l-42 15l24 220h236v-113h-62v53h-113l-7 -75c-1 -20 -5 -33 -5 -33h2s23 10 55 10c91 0 153 -62 153 -140s-64 -149 -162 -149z" />
    <glyph glyph-name="sixinferior" unicode="&#x2086;" horiz-adv-x="383" 
d="M204 -167c-95 0 -165 79 -165 203c0 115 61 254 197 254c53 0 93 -22 93 -22l-25 -64s-33 16 -65 16c-64 0 -104 -56 -116 -125h2c18 18 52 31 79 31c89 0 146 -60 146 -143c0 -89 -61 -150 -146 -150zM204 -98c46 0 71 37 71 82c0 48 -30 84 -81 84
c-42 0 -78 -27 -78 -53c0 -53 36 -113 88 -113z" />
    <glyph glyph-name="seveninferior" unicode="&#x2087;" horiz-adv-x="354" 
d="M59 -158l180 355c7 12 16 22 16 22v2s-14 -2 -27 -2h-134v-53h-63v113h305v-51l-198 -386h-79z" />
    <glyph glyph-name="eightinferior" unicode="&#x2088;" horiz-adv-x="391" 
d="M197 -166c-79 0 -159 46 -159 136c0 60 51 100 71 114c-29 21 -51 48 -51 90c0 78 70 117 141 117c70 0 142 -40 142 -119c0 -55 -45 -102 -54 -112c36 -21 64 -50 64 -99c0 -76 -71 -127 -154 -127zM233 86c11 11 37 42 37 82c0 38 -37 58 -72 58c-34 0 -67 -18 -67 -55
c0 -45 51 -62 102 -85zM197 -101c38 0 79 26 79 65c0 47 -61 64 -117 91c-16 -13 -47 -41 -47 -82c0 -47 42 -74 85 -74z" />
    <glyph glyph-name="nineinferior" unicode="&#x2089;" horiz-adv-x="383" 
d="M148 -167c-54 0 -94 22 -94 22l25 64s32 -16 67 -16c60 0 103 56 114 125h-2c-20 -19 -50 -31 -83 -31c-84 0 -142 61 -142 145c0 86 61 148 146 148c95 0 165 -78 165 -203c0 -116 -61 -254 -196 -254zM191 55c42 0 76 24 76 63c0 40 -36 103 -90 103
c-42 0 -69 -37 -69 -82c0 -48 30 -84 83 -84z" />
    <glyph glyph-name="zero.denominator" horiz-adv-x="399" 
d="M200 -10c-120 0 -158 100 -158 229c0 128 38 228 158 228c119 0 157 -100 157 -228c0 -129 -38 -229 -157 -229zM200 59c63 0 81 70 81 160c0 88 -18 158 -81 158c-64 0 -82 -70 -82 -158c0 -90 18 -160 82 -160z" />
    <glyph glyph-name="one.denominator" horiz-adv-x="336" 
d="M37 0v62h103v247c0 18 3 31 3 31h-2s-5 -9 -16 -18l-48 -47l-46 49l117 113h67v-375h102v-62h-280z" />
    <glyph glyph-name="two.denominator" horiz-adv-x="374" 
d="M34 40c0 160 214 174 214 273c0 37 -30 65 -71 65c-50 0 -85 -48 -85 -48l-49 45s47 72 140 72c85 0 141 -54 141 -128c0 -147 -206 -155 -212 -257h157v51h63v-113h-294s-4 25 -4 40z" />
    <glyph glyph-name="three.denominator" horiz-adv-x="375" 
d="M47 324v113h280v-48l-112 -130c61 -9 120 -46 120 -124c0 -77 -63 -145 -156 -145c-100 0 -147 66 -147 66l42 51s34 -50 102 -50c43 0 83 32 83 76c0 47 -44 71 -88 71h-32l-16 38l95 115c11 12 22 20 22 20v3s-14 -3 -30 -3h-100v-53h-63z" />
    <glyph glyph-name="four.denominator" horiz-adv-x="392" 
d="M229 0v109h-208v48l201 280h81v-269h62v-59h-62v-109h-74zM98 168h131v146c0 20 4 45 4 45h-3s-9 -22 -21 -39l-111 -150v-2z" />
    <glyph glyph-name="five.denominator" horiz-adv-x="368" 
d="M171 -10c-92 0 -143 62 -143 62l42 50s38 -45 96 -45c50 0 91 35 91 83c0 47 -38 83 -92 83c-42 0 -73 -21 -73 -21l-42 15l24 220h236v-113h-62v53h-113l-7 -75c-1 -20 -5 -33 -5 -33h2s23 10 55 10c91 0 153 -62 153 -140s-64 -149 -162 -149z" />
    <glyph glyph-name="six.denominator" horiz-adv-x="383" 
d="M204 -10c-95 0 -165 79 -165 203c0 115 61 254 197 254c53 0 93 -22 93 -22l-25 -64s-33 16 -65 16c-64 0 -104 -56 -116 -125h2c18 18 52 31 79 31c89 0 146 -60 146 -143c0 -89 -61 -150 -146 -150zM204 59c46 0 71 37 71 82c0 48 -30 84 -81 84c-42 0 -78 -27 -78 -53
c0 -53 36 -113 88 -113z" />
    <glyph glyph-name="seven.denominator" horiz-adv-x="353" 
d="M59 0l180 355c7 12 16 22 16 22v2s-14 -2 -27 -2h-134v-53h-63v113h305v-51l-198 -386h-79z" />
    <glyph glyph-name="eight.denominator" horiz-adv-x="391" 
d="M197 -10c-79 0 -159 46 -159 136c0 60 51 100 71 114c-29 21 -51 48 -51 90c0 78 70 117 141 117c70 0 142 -40 142 -119c0 -55 -45 -102 -54 -112c36 -21 64 -50 64 -99c0 -76 -71 -127 -154 -127zM233 242c11 11 37 42 37 82c0 38 -37 58 -72 58c-34 0 -67 -18 -67 -55
c0 -45 51 -62 102 -85zM197 55c38 0 79 26 79 65c0 47 -61 64 -117 91c-16 -13 -47 -41 -47 -82c0 -47 42 -74 85 -74z" />
    <glyph glyph-name="nine.denominator" horiz-adv-x="383" 
d="M148 -10c-54 0 -94 22 -94 22l25 64s32 -16 67 -16c60 0 103 56 114 125h-2c-20 -19 -50 -31 -83 -31c-84 0 -142 61 -142 145c0 86 61 148 146 148c95 0 165 -78 165 -203c0 -116 -61 -254 -196 -254zM191 212c42 0 76 24 76 63c0 40 -36 103 -90 103
c-42 0 -69 -37 -69 -82c0 -48 30 -84 83 -84z" />
    <glyph glyph-name="thinspace" unicode="&#x2009;" horiz-adv-x="260" 
 />
    <glyph glyph-name="uni00A0" unicode="&#xa0;" horiz-adv-x="260" 
 />
    <glyph glyph-name="uni00AD" unicode="&#xad;" horiz-adv-x="476" 
d="M92 242v86h292v-86h-292z" />
    </font>
</defs>
</svg>
